<?xml version="1.0" encoding="utf-8" standalone="no"?>
<!DOCTYPE svg PUBLIC "-//W3C//DTD SVG 1.1//EN"
  "http://www.w3.org/Graphics/SVG/1.1/DTD/svg11.dtd">
<svg xmlns:xlink="http://www.w3.org/1999/xlink" width="504pt" height="432pt" viewBox="0 0 504 432" xmlns="http://www.w3.org/2000/svg" version="1.1">
 <metadata>
  <rdf:RDF xmlns:dc="http://purl.org/dc/elements/1.1/" xmlns:cc="http://creativecommons.org/ns#" xmlns:rdf="http://www.w3.org/1999/02/22-rdf-syntax-ns#">
   <cc:Work>
    <dc:type rdf:resource="http://purl.org/dc/dcmitype/StillImage"/>
    <dc:date>2023-06-13T19:38:31.736483</dc:date>
    <dc:format>image/svg+xml</dc:format>
    <dc:creator>
     <cc:Agent>
      <dc:title>Matplotlib v3.6.2, https://matplotlib.org/</dc:title>
     </cc:Agent>
    </dc:creator>
   </cc:Work>
  </rdf:RDF>
 </metadata>
 <defs>
  <style type="text/css">*{stroke-linejoin: round; stroke-linecap: butt}</style>
 </defs>
 <g id="figure_1">
  <g id="patch_1">
   <path d="M 0 432 
L 504 432 
L 504 0 
L 0 0 
z
" style="fill: #ffffff"/>
  </g>
  <g id="axes_1">
   <g id="patch_2">
    <path d="M 424.62 218.16 
C 424.62 196.319058 420.317811 174.690491 411.959644 154.512092 
C 403.601477 134.333692 391.349878 115.997879 375.906 100.554 
C 360.462121 85.110122 342.126308 72.858523 321.947908 64.500356 
C 301.769509 56.142189 280.140942 51.84 258.3 51.84 
C 236.459058 51.84 214.830491 56.142189 194.652092 64.500356 
C 174.473692 72.858523 156.137879 85.110122 140.694 100.554 
C 125.250122 115.997879 112.998523 134.333692 104.640356 154.512092 
C 96.282189 174.690491 91.98 196.319058 91.98 218.16 
C 91.98 240.000942 96.282189 261.629509 104.640356 281.807908 
C 112.998523 301.986308 125.250122 320.322121 140.694 335.766 
C 156.137879 351.209878 174.473692 363.461477 194.652092 371.819644 
C 214.830491 380.177811 236.459058 384.48 258.3 384.48 
C 280.140942 384.48 301.769509 380.177811 321.947908 371.819644 
C 342.126308 363.461477 360.462121 351.209878 375.906 335.766 
C 391.349878 320.322121 403.601477 301.986308 411.959644 281.807908 
C 420.317811 261.629509 424.62 240.000942 424.62 218.16 
M 258.3 218.16 
C 258.3 218.16 258.3 218.16 258.3 218.16 
C 258.3 218.16 258.3 218.16 258.3 218.16 
C 258.3 218.16 258.3 218.16 258.3 218.16 
C 258.3 218.16 258.3 218.16 258.3 218.16 
C 258.3 218.16 258.3 218.16 258.3 218.16 
C 258.3 218.16 258.3 218.16 258.3 218.16 
C 258.3 218.16 258.3 218.16 258.3 218.16 
C 258.3 218.16 258.3 218.16 258.3 218.16 
C 258.3 218.16 258.3 218.16 258.3 218.16 
C 258.3 218.16 258.3 218.16 258.3 218.16 
C 258.3 218.16 258.3 218.16 258.3 218.16 
C 258.3 218.16 258.3 218.16 258.3 218.16 
C 258.3 218.16 258.3 218.16 258.3 218.16 
C 258.3 218.16 258.3 218.16 258.3 218.16 
C 258.3 218.16 258.3 218.16 258.3 218.16 
C 258.3 218.16 258.3 218.16 258.3 218.16 
M 424.62 218.16 
z
" style="fill: #f5f5f5"/>
   </g>
   <g id="matplotlib.axis_1">
    <g id="xtick_1">
     <g id="line2d_1">
      <path d="M 258.3 218.16 
L 415.545621 272.346317 
" clip-path="url(#pec20264f40)" style="fill: none; stroke: #b0b0b0; stroke-width: 0.8; stroke-linecap: square"/>
     </g>
     <g id="text_1">
      <!-- Gennaio -->
      <g transform="translate(418.853566 283.413478) scale(0.1 -0.1)">
       <defs>
        <path id="DejaVuSans-47" d="M 3809 666 
L 3809 1919 
L 2778 1919 
L 2778 2438 
L 4434 2438 
L 4434 434 
Q 4069 175 3628 42 
Q 3188 -91 2688 -91 
Q 1594 -91 976 548 
Q 359 1188 359 2328 
Q 359 3472 976 4111 
Q 1594 4750 2688 4750 
Q 3144 4750 3555 4637 
Q 3966 4525 4313 4306 
L 4313 3634 
Q 3963 3931 3569 4081 
Q 3175 4231 2741 4231 
Q 1884 4231 1454 3753 
Q 1025 3275 1025 2328 
Q 1025 1384 1454 906 
Q 1884 428 2741 428 
Q 3075 428 3337 486 
Q 3600 544 3809 666 
z
" transform="scale(0.015625)"/>
        <path id="DejaVuSans-65" d="M 3597 1894 
L 3597 1613 
L 953 1613 
Q 991 1019 1311 708 
Q 1631 397 2203 397 
Q 2534 397 2845 478 
Q 3156 559 3463 722 
L 3463 178 
Q 3153 47 2828 -22 
Q 2503 -91 2169 -91 
Q 1331 -91 842 396 
Q 353 884 353 1716 
Q 353 2575 817 3079 
Q 1281 3584 2069 3584 
Q 2775 3584 3186 3129 
Q 3597 2675 3597 1894 
z
M 3022 2063 
Q 3016 2534 2758 2815 
Q 2500 3097 2075 3097 
Q 1594 3097 1305 2825 
Q 1016 2553 972 2059 
L 3022 2063 
z
" transform="scale(0.015625)"/>
        <path id="DejaVuSans-6e" d="M 3513 2113 
L 3513 0 
L 2938 0 
L 2938 2094 
Q 2938 2591 2744 2837 
Q 2550 3084 2163 3084 
Q 1697 3084 1428 2787 
Q 1159 2491 1159 1978 
L 1159 0 
L 581 0 
L 581 3500 
L 1159 3500 
L 1159 2956 
Q 1366 3272 1645 3428 
Q 1925 3584 2291 3584 
Q 2894 3584 3203 3211 
Q 3513 2838 3513 2113 
z
" transform="scale(0.015625)"/>
        <path id="DejaVuSans-61" d="M 2194 1759 
Q 1497 1759 1228 1600 
Q 959 1441 959 1056 
Q 959 750 1161 570 
Q 1363 391 1709 391 
Q 2188 391 2477 730 
Q 2766 1069 2766 1631 
L 2766 1759 
L 2194 1759 
z
M 3341 1997 
L 3341 0 
L 2766 0 
L 2766 531 
Q 2569 213 2275 61 
Q 1981 -91 1556 -91 
Q 1019 -91 701 211 
Q 384 513 384 1019 
Q 384 1609 779 1909 
Q 1175 2209 1959 2209 
L 2766 2209 
L 2766 2266 
Q 2766 2663 2505 2880 
Q 2244 3097 1772 3097 
Q 1472 3097 1187 3025 
Q 903 2953 641 2809 
L 641 3341 
Q 956 3463 1253 3523 
Q 1550 3584 1831 3584 
Q 2591 3584 2966 3190 
Q 3341 2797 3341 1997 
z
" transform="scale(0.015625)"/>
        <path id="DejaVuSans-69" d="M 603 3500 
L 1178 3500 
L 1178 0 
L 603 0 
L 603 3500 
z
M 603 4863 
L 1178 4863 
L 1178 4134 
L 603 4134 
L 603 4863 
z
" transform="scale(0.015625)"/>
        <path id="DejaVuSans-6f" d="M 1959 3097 
Q 1497 3097 1228 2736 
Q 959 2375 959 1747 
Q 959 1119 1226 758 
Q 1494 397 1959 397 
Q 2419 397 2687 759 
Q 2956 1122 2956 1747 
Q 2956 2369 2687 2733 
Q 2419 3097 1959 3097 
z
M 1959 3584 
Q 2709 3584 3137 3096 
Q 3566 2609 3566 1747 
Q 3566 888 3137 398 
Q 2709 -91 1959 -91 
Q 1206 -91 779 398 
Q 353 888 353 1747 
Q 353 2609 779 3096 
Q 1206 3584 1959 3584 
z
" transform="scale(0.015625)"/>
       </defs>
       <use xlink:href="#DejaVuSans-47"/>
       <use xlink:href="#DejaVuSans-65" x="77.490234"/>
       <use xlink:href="#DejaVuSans-6e" x="139.013672"/>
       <use xlink:href="#DejaVuSans-6e" x="202.392578"/>
       <use xlink:href="#DejaVuSans-61" x="265.771484"/>
       <use xlink:href="#DejaVuSans-69" x="327.050781"/>
       <use xlink:href="#DejaVuSans-6f" x="354.833984"/>
      </g>
     </g>
    </g>
    <g id="xtick_2">
     <g id="line2d_2">
      <path d="M 258.3 218.16 
L 358.425819 85.35502 
" clip-path="url(#pec20264f40)" style="fill: none; stroke: #b0b0b0; stroke-width: 0.8; stroke-linecap: square"/>
     </g>
     <g id="text_2">
      <!-- Settembre -->
      <g transform="translate(347.465281 67.752881) scale(0.1 -0.1)">
       <defs>
        <path id="DejaVuSans-53" d="M 3425 4513 
L 3425 3897 
Q 3066 4069 2747 4153 
Q 2428 4238 2131 4238 
Q 1616 4238 1336 4038 
Q 1056 3838 1056 3469 
Q 1056 3159 1242 3001 
Q 1428 2844 1947 2747 
L 2328 2669 
Q 3034 2534 3370 2195 
Q 3706 1856 3706 1288 
Q 3706 609 3251 259 
Q 2797 -91 1919 -91 
Q 1588 -91 1214 -16 
Q 841 59 441 206 
L 441 856 
Q 825 641 1194 531 
Q 1563 422 1919 422 
Q 2459 422 2753 634 
Q 3047 847 3047 1241 
Q 3047 1584 2836 1778 
Q 2625 1972 2144 2069 
L 1759 2144 
Q 1053 2284 737 2584 
Q 422 2884 422 3419 
Q 422 4038 858 4394 
Q 1294 4750 2059 4750 
Q 2388 4750 2728 4690 
Q 3069 4631 3425 4513 
z
" transform="scale(0.015625)"/>
        <path id="DejaVuSans-74" d="M 1172 4494 
L 1172 3500 
L 2356 3500 
L 2356 3053 
L 1172 3053 
L 1172 1153 
Q 1172 725 1289 603 
Q 1406 481 1766 481 
L 2356 481 
L 2356 0 
L 1766 0 
Q 1100 0 847 248 
Q 594 497 594 1153 
L 594 3053 
L 172 3053 
L 172 3500 
L 594 3500 
L 594 4494 
L 1172 4494 
z
" transform="scale(0.015625)"/>
        <path id="DejaVuSans-6d" d="M 3328 2828 
Q 3544 3216 3844 3400 
Q 4144 3584 4550 3584 
Q 5097 3584 5394 3201 
Q 5691 2819 5691 2113 
L 5691 0 
L 5113 0 
L 5113 2094 
Q 5113 2597 4934 2840 
Q 4756 3084 4391 3084 
Q 3944 3084 3684 2787 
Q 3425 2491 3425 1978 
L 3425 0 
L 2847 0 
L 2847 2094 
Q 2847 2600 2669 2842 
Q 2491 3084 2119 3084 
Q 1678 3084 1418 2786 
Q 1159 2488 1159 1978 
L 1159 0 
L 581 0 
L 581 3500 
L 1159 3500 
L 1159 2956 
Q 1356 3278 1631 3431 
Q 1906 3584 2284 3584 
Q 2666 3584 2933 3390 
Q 3200 3197 3328 2828 
z
" transform="scale(0.015625)"/>
        <path id="DejaVuSans-62" d="M 3116 1747 
Q 3116 2381 2855 2742 
Q 2594 3103 2138 3103 
Q 1681 3103 1420 2742 
Q 1159 2381 1159 1747 
Q 1159 1113 1420 752 
Q 1681 391 2138 391 
Q 2594 391 2855 752 
Q 3116 1113 3116 1747 
z
M 1159 2969 
Q 1341 3281 1617 3432 
Q 1894 3584 2278 3584 
Q 2916 3584 3314 3078 
Q 3713 2572 3713 1747 
Q 3713 922 3314 415 
Q 2916 -91 2278 -91 
Q 1894 -91 1617 61 
Q 1341 213 1159 525 
L 1159 0 
L 581 0 
L 581 4863 
L 1159 4863 
L 1159 2969 
z
" transform="scale(0.015625)"/>
        <path id="DejaVuSans-72" d="M 2631 2963 
Q 2534 3019 2420 3045 
Q 2306 3072 2169 3072 
Q 1681 3072 1420 2755 
Q 1159 2438 1159 1844 
L 1159 0 
L 581 0 
L 581 3500 
L 1159 3500 
L 1159 2956 
Q 1341 3275 1631 3429 
Q 1922 3584 2338 3584 
Q 2397 3584 2469 3576 
Q 2541 3569 2628 3553 
L 2631 2963 
z
" transform="scale(0.015625)"/>
       </defs>
       <use xlink:href="#DejaVuSans-53"/>
       <use xlink:href="#DejaVuSans-65" x="63.476562"/>
       <use xlink:href="#DejaVuSans-74" x="125"/>
       <use xlink:href="#DejaVuSans-74" x="164.208984"/>
       <use xlink:href="#DejaVuSans-65" x="203.417969"/>
       <use xlink:href="#DejaVuSans-6d" x="264.941406"/>
       <use xlink:href="#DejaVuSans-62" x="362.353516"/>
       <use xlink:href="#DejaVuSans-72" x="425.830078"/>
       <use xlink:href="#DejaVuSans-65" x="464.693359"/>
      </g>
     </g>
    </g>
    <g id="xtick_3">
     <g id="line2d_3">
      <path d="M 258.3 218.16 
L 162.935538 81.895692 
" clip-path="url(#pec20264f40)" style="fill: none; stroke: #b0b0b0; stroke-width: 0.8; stroke-linecap: square"/>
     </g>
     <g id="text_3">
      <!-- Luglio -->
      <g transform="translate(133.435457 63.763172) scale(0.1 -0.1)">
       <defs>
        <path id="DejaVuSans-4c" d="M 628 4666 
L 1259 4666 
L 1259 531 
L 3531 531 
L 3531 0 
L 628 0 
L 628 4666 
z
" transform="scale(0.015625)"/>
        <path id="DejaVuSans-75" d="M 544 1381 
L 544 3500 
L 1119 3500 
L 1119 1403 
Q 1119 906 1312 657 
Q 1506 409 1894 409 
Q 2359 409 2629 706 
Q 2900 1003 2900 1516 
L 2900 3500 
L 3475 3500 
L 3475 0 
L 2900 0 
L 2900 538 
Q 2691 219 2414 64 
Q 2138 -91 1772 -91 
Q 1169 -91 856 284 
Q 544 659 544 1381 
z
M 1991 3584 
L 1991 3584 
z
" transform="scale(0.015625)"/>
        <path id="DejaVuSans-67" d="M 2906 1791 
Q 2906 2416 2648 2759 
Q 2391 3103 1925 3103 
Q 1463 3103 1205 2759 
Q 947 2416 947 1791 
Q 947 1169 1205 825 
Q 1463 481 1925 481 
Q 2391 481 2648 825 
Q 2906 1169 2906 1791 
z
M 3481 434 
Q 3481 -459 3084 -895 
Q 2688 -1331 1869 -1331 
Q 1566 -1331 1297 -1286 
Q 1028 -1241 775 -1147 
L 775 -588 
Q 1028 -725 1275 -790 
Q 1522 -856 1778 -856 
Q 2344 -856 2625 -561 
Q 2906 -266 2906 331 
L 2906 616 
Q 2728 306 2450 153 
Q 2172 0 1784 0 
Q 1141 0 747 490 
Q 353 981 353 1791 
Q 353 2603 747 3093 
Q 1141 3584 1784 3584 
Q 2172 3584 2450 3431 
Q 2728 3278 2906 2969 
L 2906 3500 
L 3481 3500 
L 3481 434 
z
" transform="scale(0.015625)"/>
        <path id="DejaVuSans-6c" d="M 603 4863 
L 1178 4863 
L 1178 0 
L 603 0 
L 603 4863 
z
" transform="scale(0.015625)"/>
       </defs>
       <use xlink:href="#DejaVuSans-4c"/>
       <use xlink:href="#DejaVuSans-75" x="53.962891"/>
       <use xlink:href="#DejaVuSans-67" x="117.341797"/>
       <use xlink:href="#DejaVuSans-6c" x="180.818359"/>
       <use xlink:href="#DejaVuSans-69" x="208.601562"/>
       <use xlink:href="#DejaVuSans-6f" x="236.384766"/>
      </g>
     </g>
    </g>
    <g id="xtick_4">
     <g id="line2d_4">
      <path d="M 258.3 218.16 
L 99.235702 266.749006 
" clip-path="url(#pec20264f40)" style="fill: none; stroke: #b0b0b0; stroke-width: 0.8; stroke-linecap: square"/>
     </g>
     <g id="text_4">
      <!-- Giugno -->
      <g transform="translate(57.013763 276.957994) scale(0.1 -0.1)">
       <use xlink:href="#DejaVuSans-47"/>
       <use xlink:href="#DejaVuSans-69" x="77.490234"/>
       <use xlink:href="#DejaVuSans-75" x="105.273438"/>
       <use xlink:href="#DejaVuSans-67" x="168.652344"/>
       <use xlink:href="#DejaVuSans-6e" x="232.128906"/>
       <use xlink:href="#DejaVuSans-6f" x="295.507812"/>
      </g>
     </g>
    </g>
    <g id="xtick_5">
     <g id="line2d_5">
      <path d="M 258.3 218.16 
L 255.35732 384.453966 
" clip-path="url(#pec20264f40)" style="fill: none; stroke: #b0b0b0; stroke-width: 0.8; stroke-linecap: square"/>
     </g>
     <g id="text_5">
      <!-- Febbraio -->
      <g transform="translate(233.312401 412.709349) scale(0.1 -0.1)">
       <defs>
        <path id="DejaVuSans-46" d="M 628 4666 
L 3309 4666 
L 3309 4134 
L 1259 4134 
L 1259 2759 
L 3109 2759 
L 3109 2228 
L 1259 2228 
L 1259 0 
L 628 0 
L 628 4666 
z
" transform="scale(0.015625)"/>
       </defs>
       <use xlink:href="#DejaVuSans-46"/>
       <use xlink:href="#DejaVuSans-65" x="52.019531"/>
       <use xlink:href="#DejaVuSans-62" x="113.542969"/>
       <use xlink:href="#DejaVuSans-62" x="177.019531"/>
       <use xlink:href="#DejaVuSans-72" x="240.496094"/>
       <use xlink:href="#DejaVuSans-61" x="281.609375"/>
       <use xlink:href="#DejaVuSans-69" x="342.888672"/>
       <use xlink:href="#DejaVuSans-6f" x="370.671875"/>
      </g>
     </g>
    </g>
   </g>
   <g id="matplotlib.axis_2">
    <g id="ytick_1">
     <g id="line2d_6">
      <path d="M 289.749124 228.997263 
C 291.172261 224.867402 291.768066 220.497372 291.502443 216.137267 
C 291.236821 211.777162 290.114935 207.511776 288.200991 203.585213 
C 286.287048 199.658651 283.618268 196.147275 280.347385 193.252039 
C 277.076501 190.356803 273.267125 188.134012 269.137263 186.710876 
C 265.007402 185.287739 260.637372 184.691934 256.277267 184.957557 
C 251.917162 185.223179 247.651776 186.345065 243.725213 188.259009 
C 239.798651 190.172952 236.287275 192.841732 233.392039 196.112615 
C 230.496803 199.383499 228.274012 203.192875 226.850876 207.322737 
C 225.427739 211.452598 224.831934 215.822628 225.097557 220.182733 
C 225.363179 224.542838 226.485065 228.808224 228.399009 232.734787 
C 230.312952 236.661349 232.981732 240.172725 236.252615 243.067961 
C 239.523499 245.963197 243.332875 248.185988 247.462737 249.609124 
C 251.592598 251.032261 255.962628 251.628066 260.322733 251.362443 
C 264.682838 251.096821 268.948224 249.974935 272.874787 248.060991 
C 276.801349 246.147048 280.312725 243.478268 283.207961 240.207385 
C 286.103197 236.936501 288.325988 233.127125 289.749124 228.997263 
C 289.749124 228.997263 289.749124 228.997263 289.749124 228.997263 
C 289.749124 228.997263 289.749124 228.997263 289.749124 228.997263 
" clip-path="url(#pec20264f40)" style="fill: none; stroke: #b0b0b0; stroke-width: 0.8; stroke-linecap: square"/>
     </g>
     <g id="text_6">
      <!-- 20 -->
      <g transform="translate(291.502443 214.057579) scale(0.1 -0.1)">
       <defs>
        <path id="DejaVuSans-32" d="M 1228 531 
L 3431 531 
L 3431 0 
L 469 0 
L 469 531 
Q 828 903 1448 1529 
Q 2069 2156 2228 2338 
Q 2531 2678 2651 2914 
Q 2772 3150 2772 3378 
Q 2772 3750 2511 3984 
Q 2250 4219 1831 4219 
Q 1534 4219 1204 4116 
Q 875 4013 500 3803 
L 500 4441 
Q 881 4594 1212 4672 
Q 1544 4750 1819 4750 
Q 2544 4750 2975 4387 
Q 3406 4025 3406 3419 
Q 3406 3131 3298 2873 
Q 3191 2616 2906 2266 
Q 2828 2175 2409 1742 
Q 1991 1309 1228 531 
z
" transform="scale(0.015625)"/>
        <path id="DejaVuSans-30" d="M 2034 4250 
Q 1547 4250 1301 3770 
Q 1056 3291 1056 2328 
Q 1056 1369 1301 889 
Q 1547 409 2034 409 
Q 2525 409 2770 889 
Q 3016 1369 3016 2328 
Q 3016 3291 2770 3770 
Q 2525 4250 2034 4250 
z
M 2034 4750 
Q 2819 4750 3233 4129 
Q 3647 3509 3647 2328 
Q 3647 1150 3233 529 
Q 2819 -91 2034 -91 
Q 1250 -91 836 529 
Q 422 1150 422 2328 
Q 422 3509 836 4129 
Q 1250 4750 2034 4750 
z
" transform="scale(0.015625)"/>
       </defs>
       <use xlink:href="#DejaVuSans-32"/>
       <use xlink:href="#DejaVuSans-30" x="63.623047"/>
      </g>
     </g>
    </g>
    <g id="ytick_2">
     <g id="line2d_7">
      <path d="M 321.198249 239.834527 
C 324.044521 231.574804 325.236133 222.834744 324.704887 214.114534 
C 324.173641 205.394324 321.92987 196.863551 318.101983 189.010427 
C 314.274096 181.157302 308.936536 174.13455 302.394769 168.344078 
C 295.853002 162.553606 288.234249 158.108024 279.974527 155.261751 
C 271.714804 152.415479 262.974744 151.223867 254.254534 151.755113 
C 245.534324 152.286359 237.003551 154.53013 229.150427 158.358017 
C 221.297302 162.185904 214.27455 167.523464 208.484078 174.065231 
C 202.693606 180.606998 198.248024 188.225751 195.401751 196.485473 
C 192.555479 204.745196 191.363867 213.485256 191.895113 222.205466 
C 192.426359 230.925676 194.67013 239.456449 198.498017 247.309573 
C 202.325904 255.162698 207.663464 262.18545 214.205231 267.975922 
C 220.746998 273.766394 228.365751 278.211976 236.625473 281.058249 
C 244.885196 283.904521 253.625256 285.096133 262.345466 284.564887 
C 271.065676 284.033641 279.596449 281.78987 287.449573 277.961983 
C 295.302698 274.134096 302.32545 268.796536 308.115922 262.254769 
C 313.906394 255.713002 318.351976 248.094249 321.198249 239.834527 
C 321.198249 239.834527 321.198249 239.834527 321.198249 239.834527 
C 321.198249 239.834527 321.198249 239.834527 321.198249 239.834527 
" clip-path="url(#pec20264f40)" style="fill: none; stroke: #b0b0b0; stroke-width: 0.8; stroke-linecap: square"/>
     </g>
     <g id="text_7">
      <!-- 40 -->
      <g transform="translate(324.704887 212.034846) scale(0.1 -0.1)">
       <defs>
        <path id="DejaVuSans-34" d="M 2419 4116 
L 825 1625 
L 2419 1625 
L 2419 4116 
z
M 2253 4666 
L 3047 4666 
L 3047 1625 
L 3713 1625 
L 3713 1100 
L 3047 1100 
L 3047 0 
L 2419 0 
L 2419 1100 
L 313 1100 
L 313 1709 
L 2253 4666 
z
" transform="scale(0.015625)"/>
       </defs>
       <use xlink:href="#DejaVuSans-34"/>
       <use xlink:href="#DejaVuSans-30" x="63.623047"/>
      </g>
     </g>
    </g>
    <g id="ytick_3">
     <g id="line2d_8">
      <path d="M 352.647373 250.67179 
C 356.916782 238.282207 358.704199 225.172116 357.90733 212.091801 
C 357.110462 199.011486 353.744805 186.215327 348.002974 174.43564 
C 342.261144 162.655953 334.254804 152.121825 324.442154 143.436117 
C 314.629503 134.750409 303.201374 128.082036 290.81179 123.812627 
C 278.422207 119.543218 265.312116 117.755801 252.231801 118.55267 
C 239.151486 119.349538 226.355327 122.715195 214.57564 128.457026 
C 202.795953 134.198856 192.261825 142.205196 183.576117 152.017846 
C 174.890409 161.830497 168.222036 173.258626 163.952627 185.64821 
C 159.683218 198.037793 157.895801 211.147884 158.69267 224.228199 
C 159.489538 237.308514 162.855195 250.104673 168.597026 261.88436 
C 174.338856 273.664047 182.345196 284.198175 192.157846 292.883883 
C 201.970497 301.569591 213.398626 308.237964 225.78821 312.507373 
C 238.177793 316.776782 251.287884 318.564199 264.368199 317.76733 
C 277.448514 316.970462 290.244673 313.604805 302.02436 307.862974 
C 313.804047 302.121144 324.338175 294.114804 333.023883 284.302154 
C 341.709591 274.489503 348.377964 263.061374 352.647373 250.67179 
C 352.647373 250.67179 352.647373 250.67179 352.647373 250.67179 
C 352.647373 250.67179 352.647373 250.67179 352.647373 250.67179 
" clip-path="url(#pec20264f40)" style="fill: none; stroke: #b0b0b0; stroke-width: 0.8; stroke-linecap: square"/>
     </g>
     <g id="text_8">
      <!-- 60 -->
      <g transform="translate(357.90733 210.012113) scale(0.1 -0.1)">
       <defs>
        <path id="DejaVuSans-36" d="M 2113 2584 
Q 1688 2584 1439 2293 
Q 1191 2003 1191 1497 
Q 1191 994 1439 701 
Q 1688 409 2113 409 
Q 2538 409 2786 701 
Q 3034 994 3034 1497 
Q 3034 2003 2786 2293 
Q 2538 2584 2113 2584 
z
M 3366 4563 
L 3366 3988 
Q 3128 4100 2886 4159 
Q 2644 4219 2406 4219 
Q 1781 4219 1451 3797 
Q 1122 3375 1075 2522 
Q 1259 2794 1537 2939 
Q 1816 3084 2150 3084 
Q 2853 3084 3261 2657 
Q 3669 2231 3669 1497 
Q 3669 778 3244 343 
Q 2819 -91 2113 -91 
Q 1303 -91 875 529 
Q 447 1150 447 2328 
Q 447 3434 972 4092 
Q 1497 4750 2381 4750 
Q 2619 4750 2861 4703 
Q 3103 4656 3366 4563 
z
" transform="scale(0.015625)"/>
       </defs>
       <use xlink:href="#DejaVuSans-36"/>
       <use xlink:href="#DejaVuSans-30" x="63.623047"/>
      </g>
     </g>
    </g>
    <g id="ytick_4">
     <g id="line2d_9">
      <path d="M 384.096497 261.509053 
C 389.789043 244.989609 392.172265 227.509488 391.109774 210.069068 
C 390.047282 192.628648 385.55974 175.567102 377.903966 159.860853 
C 370.248192 144.154605 359.573072 130.1091 346.489539 118.528156 
C 333.406005 106.947211 318.168498 98.056048 301.649053 92.363503 
C 285.129609 86.670957 267.649488 84.287735 250.209068 85.350226 
C 232.768648 86.412718 215.707102 90.90026 200.000853 98.556034 
C 184.294605 106.211808 170.2491 116.886928 158.668156 129.970461 
C 147.087211 143.053995 138.196048 158.291502 132.503503 174.810947 
C 126.810957 191.330391 124.427735 208.810512 125.490226 226.250932 
C 126.552718 243.691352 131.04026 260.752898 138.696034 276.459147 
C 146.351808 292.165395 157.026928 306.2109 170.110461 317.791844 
C 183.193995 329.372789 198.431502 338.263952 214.950947 343.956497 
C 231.470391 349.649043 248.950512 352.032265 266.390932 350.969774 
C 283.831352 349.907282 300.892898 345.41974 316.599147 337.763966 
C 332.305395 330.108192 346.3509 319.433072 357.931844 306.349539 
C 369.512789 293.266005 378.403952 278.028498 384.096497 261.509053 
C 384.096497 261.509053 384.096497 261.509053 384.096497 261.509053 
C 384.096497 261.509053 384.096497 261.509053 384.096497 261.509053 
" clip-path="url(#pec20264f40)" style="fill: none; stroke: #b0b0b0; stroke-width: 0.8; stroke-linecap: square"/>
     </g>
     <g id="text_9">
      <!-- 80 -->
      <g transform="translate(391.109774 207.98938) scale(0.1 -0.1)">
       <defs>
        <path id="DejaVuSans-38" d="M 2034 2216 
Q 1584 2216 1326 1975 
Q 1069 1734 1069 1313 
Q 1069 891 1326 650 
Q 1584 409 2034 409 
Q 2484 409 2743 651 
Q 3003 894 3003 1313 
Q 3003 1734 2745 1975 
Q 2488 2216 2034 2216 
z
M 1403 2484 
Q 997 2584 770 2862 
Q 544 3141 544 3541 
Q 544 4100 942 4425 
Q 1341 4750 2034 4750 
Q 2731 4750 3128 4425 
Q 3525 4100 3525 3541 
Q 3525 3141 3298 2862 
Q 3072 2584 2669 2484 
Q 3125 2378 3379 2068 
Q 3634 1759 3634 1313 
Q 3634 634 3220 271 
Q 2806 -91 2034 -91 
Q 1263 -91 848 271 
Q 434 634 434 1313 
Q 434 1759 690 2068 
Q 947 2378 1403 2484 
z
M 1172 3481 
Q 1172 3119 1398 2916 
Q 1625 2713 2034 2713 
Q 2441 2713 2670 2916 
Q 2900 3119 2900 3481 
Q 2900 3844 2670 4047 
Q 2441 4250 2034 4250 
Q 1625 4250 1398 4047 
Q 1172 3844 1172 3481 
z
" transform="scale(0.015625)"/>
       </defs>
       <use xlink:href="#DejaVuSans-38"/>
       <use xlink:href="#DejaVuSans-30" x="63.623047"/>
      </g>
     </g>
    </g>
    <g id="ytick_5">
     <g id="line2d_10">
      <path d="M 415.545621 272.346317 
C 422.661303 251.697011 425.640331 229.846859 424.312217 208.046335 
C 422.984103 186.24581 417.374675 164.918878 407.804957 145.286067 
C 398.23524 125.653256 384.891341 108.096375 368.536923 93.620194 
C 352.182506 79.144014 333.135623 68.03006 312.486317 60.914379 
C 291.837011 53.798697 269.986859 50.819669 248.186335 52.147783 
C 226.38581 53.475897 205.058878 59.085325 185.426067 68.655043 
C 165.793256 78.22476 148.236375 91.568659 133.760194 107.923077 
C 119.284014 124.277494 108.17006 143.324377 101.054379 163.973683 
C 93.938697 184.622989 90.959669 206.473141 92.287783 228.273665 
C 93.615897 250.07419 99.225325 271.401122 108.795043 291.033933 
C 118.36476 310.666744 131.708659 328.223625 148.063077 342.699806 
C 164.417494 357.175986 183.464377 368.28994 204.113683 375.405621 
C 224.762989 382.521303 246.613141 385.500331 268.413665 384.172217 
C 290.21419 382.844103 311.541122 377.234675 331.173933 367.664957 
C 350.806744 358.09524 368.363625 344.751341 382.839806 328.396923 
C 397.315986 312.042506 408.42994 292.995623 415.545621 272.346317 
C 415.545621 272.346317 415.545621 272.346317 415.545621 272.346317 
C 415.545621 272.346317 415.545621 272.346317 415.545621 272.346317 
" clip-path="url(#pec20264f40)" style="fill: none; stroke: #808080; stroke-width: 0.5; stroke-linecap: square"/>
     </g>
     <g id="text_10">
      <!-- 100 -->
      <g transform="translate(424.312217 205.966647) scale(0.1 -0.1)">
       <defs>
        <path id="DejaVuSans-31" d="M 794 531 
L 1825 531 
L 1825 4091 
L 703 3866 
L 703 4441 
L 1819 4666 
L 2450 4666 
L 2450 531 
L 3481 531 
L 3481 0 
L 794 0 
L 794 531 
z
" transform="scale(0.015625)"/>
       </defs>
       <use xlink:href="#DejaVuSans-31"/>
       <use xlink:href="#DejaVuSans-30" x="63.623047"/>
       <use xlink:href="#DejaVuSans-30" x="127.246094"/>
      </g>
     </g>
    </g>
   </g>
   <g id="line2d_11">
    <path d="M 299.183862 232.248442 
L 300.352844 162.381908 
L 222.061504 166.379563 
L 210.580711 232.736702 
L 257.417196 268.04819 
L 299.183862 232.248442 
" clip-path="url(#pec20264f40)" style="fill: none; stroke: #008000; stroke-opacity: 0.8; stroke-width: 1.5; stroke-linecap: square"/>
    <defs>
     <path id="mc5a66f59e2" d="M 0 3 
C 0.795609 3 1.55874 2.683901 2.12132 2.12132 
C 2.683901 1.55874 3 0.795609 3 0 
C 3 -0.795609 2.683901 -1.55874 2.12132 -2.12132 
C 1.55874 -2.683901 0.795609 -3 0 -3 
C -0.795609 -3 -1.55874 -2.683901 -2.12132 -2.12132 
C -2.683901 -1.55874 -3 -0.795609 -3 0 
C -3 0.795609 -2.683901 1.55874 -2.12132 2.12132 
C -1.55874 2.683901 -0.795609 3 0 3 
z
" style="stroke: #008000; stroke-opacity: 0.8"/>
    </defs>
    <g clip-path="url(#pec20264f40)">
     <use xlink:href="#mc5a66f59e2" x="299.183862" y="232.248442" style="fill: #008000; fill-opacity: 0.8; stroke: #008000; stroke-opacity: 0.8"/>
     <use xlink:href="#mc5a66f59e2" x="300.352844" y="162.381908" style="fill: #008000; fill-opacity: 0.8; stroke: #008000; stroke-opacity: 0.8"/>
     <use xlink:href="#mc5a66f59e2" x="222.061504" y="166.379563" style="fill: #008000; fill-opacity: 0.8; stroke: #008000; stroke-opacity: 0.8"/>
     <use xlink:href="#mc5a66f59e2" x="210.580711" y="232.736702" style="fill: #008000; fill-opacity: 0.8; stroke: #008000; stroke-opacity: 0.8"/>
     <use xlink:href="#mc5a66f59e2" x="257.417196" y="268.04819" style="fill: #008000; fill-opacity: 0.8; stroke: #008000; stroke-opacity: 0.8"/>
     <use xlink:href="#mc5a66f59e2" x="299.183862" y="232.248442" style="fill: #008000; fill-opacity: 0.8; stroke: #008000; stroke-opacity: 0.8"/>
    </g>
   </g>
   <g id="line2d_12">
    <path d="M 325.915617 241.460116 
L 290.340262 175.662406 
L 230.644306 178.643351 
L 201.036853 235.652042 
L 257.505476 263.059371 
L 325.915617 241.460116 
" clip-path="url(#pec20264f40)" style="fill: none; stroke: #ffa500; stroke-opacity: 0.8; stroke-width: 1.5; stroke-linecap: square"/>
    <defs>
     <path id="mb456919654" d="M 0 3 
C 0.795609 3 1.55874 2.683901 2.12132 2.12132 
C 2.683901 1.55874 3 0.795609 3 0 
C 3 -0.795609 2.683901 -1.55874 2.12132 -2.12132 
C 1.55874 -2.683901 0.795609 -3 0 -3 
C -0.795609 -3 -1.55874 -2.683901 -2.12132 -2.12132 
C -2.683901 -1.55874 -3 -0.795609 -3 0 
C -3 0.795609 -2.683901 1.55874 -2.12132 2.12132 
C -1.55874 2.683901 -0.795609 3 0 3 
z
" style="stroke: #ffa500; stroke-opacity: 0.8"/>
    </defs>
    <g clip-path="url(#pec20264f40)">
     <use xlink:href="#mb456919654" x="325.915617" y="241.460116" style="fill: #ffa500; fill-opacity: 0.8; stroke: #ffa500; stroke-opacity: 0.8"/>
     <use xlink:href="#mb456919654" x="290.340262" y="175.662406" style="fill: #ffa500; fill-opacity: 0.8; stroke: #ffa500; stroke-opacity: 0.8"/>
     <use xlink:href="#mb456919654" x="230.644306" y="178.643351" style="fill: #ffa500; fill-opacity: 0.8; stroke: #ffa500; stroke-opacity: 0.8"/>
     <use xlink:href="#mb456919654" x="201.036853" y="235.652042" style="fill: #ffa500; fill-opacity: 0.8; stroke: #ffa500; stroke-opacity: 0.8"/>
     <use xlink:href="#mb456919654" x="257.505476" y="263.059371" style="fill: #ffa500; fill-opacity: 0.8; stroke: #ffa500; stroke-opacity: 0.8"/>
     <use xlink:href="#mb456919654" x="325.915617" y="241.460116" style="fill: #ffa500; fill-opacity: 0.8; stroke: #ffa500; stroke-opacity: 0.8"/>
    </g>
   </g>
   <g id="line2d_13">
    <path d="M 300.756318 232.790306 
L 274.320131 196.911203 
L 239.227108 190.907138 
L 196.264924 237.109712 
L 257.888025 241.441155 
L 300.756318 232.790306 
" clip-path="url(#pec20264f40)" style="fill: none; stroke: #00bfbf; stroke-opacity: 0.8; stroke-width: 1.5; stroke-linecap: square"/>
    <defs>
     <path id="mfe610ffeec" d="M 0 3 
C 0.795609 3 1.55874 2.683901 2.12132 2.12132 
C 2.683901 1.55874 3 0.795609 3 0 
C 3 -0.795609 2.683901 -1.55874 2.12132 -2.12132 
C 1.55874 -2.683901 0.795609 -3 0 -3 
C -0.795609 -3 -1.55874 -2.683901 -2.12132 -2.12132 
C -2.683901 -1.55874 -3 -0.795609 -3 0 
C -3 0.795609 -2.683901 1.55874 -2.12132 2.12132 
C -1.55874 2.683901 -0.795609 3 0 3 
z
" style="stroke: #00bfbf; stroke-opacity: 0.8"/>
    </defs>
    <g clip-path="url(#pec20264f40)">
     <use xlink:href="#mfe610ffeec" x="300.756318" y="232.790306" style="fill: #00bfbf; fill-opacity: 0.8; stroke: #00bfbf; stroke-opacity: 0.8"/>
     <use xlink:href="#mfe610ffeec" x="274.320131" y="196.911203" style="fill: #00bfbf; fill-opacity: 0.8; stroke: #00bfbf; stroke-opacity: 0.8"/>
     <use xlink:href="#mfe610ffeec" x="239.227108" y="190.907138" style="fill: #00bfbf; fill-opacity: 0.8; stroke: #00bfbf; stroke-opacity: 0.8"/>
     <use xlink:href="#mfe610ffeec" x="196.264924" y="237.109712" style="fill: #00bfbf; fill-opacity: 0.8; stroke: #00bfbf; stroke-opacity: 0.8"/>
     <use xlink:href="#mfe610ffeec" x="257.888025" y="241.441155" style="fill: #00bfbf; fill-opacity: 0.8; stroke: #00bfbf; stroke-opacity: 0.8"/>
     <use xlink:href="#mfe610ffeec" x="300.756318" y="232.790306" style="fill: #00bfbf; fill-opacity: 0.8; stroke: #00bfbf; stroke-opacity: 0.8"/>
    </g>
   </g>
   <g id="line2d_14">
    <path d="M 280.314387 225.746084 
L 272.317615 199.567303 
L 241.134397 193.632424 
L 215.35264 231.279032 
L 257.270062 276.362888 
L 280.314387 225.746084 
" clip-path="url(#pec20264f40)" style="fill: none; stroke: #ff0000; stroke-opacity: 0.8; stroke-width: 1.5; stroke-linecap: square"/>
    <defs>
     <path id="m363ecde97f" d="M 0 3 
C 0.795609 3 1.55874 2.683901 2.12132 2.12132 
C 2.683901 1.55874 3 0.795609 3 0 
C 3 -0.795609 2.683901 -1.55874 2.12132 -2.12132 
C 1.55874 -2.683901 0.795609 -3 0 -3 
C -0.795609 -3 -1.55874 -2.683901 -2.12132 -2.12132 
C -2.683901 -1.55874 -3 -0.795609 -3 0 
C -3 0.795609 -2.683901 1.55874 -2.12132 2.12132 
C -1.55874 2.683901 -0.795609 3 0 3 
z
" style="stroke: #ff0000; stroke-opacity: 0.8"/>
    </defs>
    <g clip-path="url(#pec20264f40)">
     <use xlink:href="#m363ecde97f" x="280.314387" y="225.746084" style="fill: #ff0000; fill-opacity: 0.8; stroke: #ff0000; stroke-opacity: 0.8"/>
     <use xlink:href="#m363ecde97f" x="272.317615" y="199.567303" style="fill: #ff0000; fill-opacity: 0.8; stroke: #ff0000; stroke-opacity: 0.8"/>
     <use xlink:href="#m363ecde97f" x="241.134397" y="193.632424" style="fill: #ff0000; fill-opacity: 0.8; stroke: #ff0000; stroke-opacity: 0.8"/>
     <use xlink:href="#m363ecde97f" x="215.35264" y="231.279032" style="fill: #ff0000; fill-opacity: 0.8; stroke: #ff0000; stroke-opacity: 0.8"/>
     <use xlink:href="#m363ecde97f" x="257.270062" y="276.362888" style="fill: #ff0000; fill-opacity: 0.8; stroke: #ff0000; stroke-opacity: 0.8"/>
     <use xlink:href="#m363ecde97f" x="280.314387" y="225.746084" style="fill: #ff0000; fill-opacity: 0.8; stroke: #ff0000; stroke-opacity: 0.8"/>
    </g>
   </g>
   <g id="patch_3">
    <path d="M 415.545621 272.346317 
C 415.545621 272.346317 415.545621 272.346317 415.545621 272.346317 
C 415.545621 272.346317 415.545621 272.346317 415.545621 272.346317 
" style="fill: none; stroke: #000000; stroke-width: 0.8; stroke-linejoin: miter; stroke-linecap: square"/>
   </g>
   <g id="text_11">
    <!-- Percentuali di studenti promossi per ogni appello  -->
    <g transform="translate(68.0175 25.84) scale(0.18 -0.18)">
     <defs>
      <path id="TimesNewRomanPS-BoldMT-50" d="M 1728 1919 
L 1728 744 
Q 1728 400 1770 311 
Q 1813 222 1920 169 
Q 2028 116 2316 116 
L 2316 0 
L 163 0 
L 163 116 
Q 456 116 561 170 
Q 666 225 708 312 
Q 750 400 750 744 
L 750 3494 
Q 750 3838 708 3927 
Q 666 4016 559 4069 
Q 453 4122 163 4122 
L 163 4238 
L 2009 4238 
Q 2922 4238 3319 3913 
Q 3716 3588 3716 3100 
Q 3716 2688 3459 2394 
Q 3203 2100 2753 1994 
Q 2450 1919 1728 1919 
z
M 1728 3994 
L 1728 2163 
Q 1831 2156 1884 2156 
Q 2266 2156 2472 2382 
Q 2678 2609 2678 3084 
Q 2678 3556 2472 3775 
Q 2266 3994 1856 3994 
L 1728 3994 
z
" transform="scale(0.015625)"/>
      <path id="TimesNewRomanPS-BoldMT-65" d="M 2691 1566 
L 1088 1566 
Q 1116 984 1397 647 
Q 1613 388 1916 388 
Q 2103 388 2256 492 
Q 2409 597 2584 869 
L 2691 800 
Q 2453 316 2165 114 
Q 1878 -88 1500 -88 
Q 850 -88 516 413 
Q 247 816 247 1413 
Q 247 2144 642 2576 
Q 1038 3009 1569 3009 
Q 2013 3009 2339 2645 
Q 2666 2281 2691 1566 
z
M 1922 1775 
Q 1922 2278 1867 2465 
Q 1813 2653 1697 2750 
Q 1631 2806 1522 2806 
Q 1359 2806 1256 2647 
Q 1072 2369 1072 1884 
L 1072 1775 
L 1922 1775 
z
" transform="scale(0.015625)"/>
      <path id="TimesNewRomanPS-BoldMT-72" d="M 1428 2922 
L 1428 2259 
Q 1719 2713 1937 2861 
Q 2156 3009 2359 3009 
Q 2534 3009 2639 2901 
Q 2744 2794 2744 2597 
Q 2744 2388 2642 2272 
Q 2541 2156 2397 2156 
Q 2231 2156 2109 2262 
Q 1988 2369 1966 2381 
Q 1934 2400 1894 2400 
Q 1803 2400 1722 2331 
Q 1594 2225 1528 2028 
Q 1428 1725 1428 1359 
L 1428 688 
L 1431 513 
Q 1431 334 1453 284 
Q 1491 200 1564 161 
Q 1638 122 1813 113 
L 1813 0 
L 234 0 
L 234 113 
Q 425 128 492 217 
Q 559 306 559 688 
L 559 2303 
Q 559 2553 534 2622 
Q 503 2709 443 2750 
Q 384 2791 234 2806 
L 234 2922 
L 1428 2922 
z
" transform="scale(0.015625)"/>
      <path id="TimesNewRomanPS-BoldMT-63" d="M 2600 753 
L 2697 678 
Q 2491 291 2183 101 
Q 1875 -88 1528 -88 
Q 944 -88 594 353 
Q 244 794 244 1413 
Q 244 2009 563 2463 
Q 947 3009 1622 3009 
Q 2075 3009 2342 2781 
Q 2609 2553 2609 2272 
Q 2609 2094 2501 1987 
Q 2394 1881 2219 1881 
Q 2034 1881 1914 2003 
Q 1794 2125 1766 2438 
Q 1747 2634 1675 2713 
Q 1603 2791 1506 2791 
Q 1356 2791 1250 2631 
Q 1088 2391 1088 1894 
Q 1088 1481 1219 1104 
Q 1350 728 1578 544 
Q 1750 409 1984 409 
Q 2138 409 2275 481 
Q 2413 553 2600 753 
z
" transform="scale(0.015625)"/>
      <path id="TimesNewRomanPS-BoldMT-6e" d="M 1409 2922 
L 1409 2544 
Q 1634 2788 1840 2898 
Q 2047 3009 2284 3009 
Q 2569 3009 2756 2851 
Q 2944 2694 3006 2459 
Q 3056 2281 3056 1775 
L 3056 638 
Q 3056 300 3117 217 
Q 3178 134 3372 113 
L 3372 0 
L 1894 0 
L 1894 113 
Q 2059 134 2131 250 
Q 2181 328 2181 638 
L 2181 1938 
Q 2181 2297 2153 2390 
Q 2125 2484 2058 2536 
Q 1991 2588 1909 2588 
Q 1641 2588 1409 2203 
L 1409 638 
Q 1409 309 1470 221 
Q 1531 134 1697 113 
L 1697 0 
L 219 0 
L 219 113 
Q 403 131 481 231 
Q 534 300 534 638 
L 534 2288 
Q 534 2619 473 2700 
Q 413 2781 219 2806 
L 219 2922 
L 1409 2922 
z
" transform="scale(0.015625)"/>
      <path id="TimesNewRomanPS-BoldMT-74" d="M 1375 3991 
L 1375 2922 
L 2069 2922 
L 2069 2613 
L 1375 2613 
L 1375 809 
Q 1375 556 1398 482 
Q 1422 409 1481 364 
Q 1541 319 1591 319 
Q 1794 319 1975 628 
L 2069 559 
Q 1816 -41 1247 -41 
Q 969 -41 776 114 
Q 584 269 531 459 
Q 500 566 500 1034 
L 500 2613 
L 119 2613 
L 119 2722 
Q 513 3000 789 3306 
Q 1066 3613 1272 3991 
L 1375 3991 
z
" transform="scale(0.015625)"/>
      <path id="TimesNewRomanPS-BoldMT-75" d="M 3038 2922 
L 3038 634 
Q 3038 300 3100 217 
Q 3163 134 3353 113 
L 3353 0 
L 2163 0 
L 2163 391 
Q 1953 141 1743 26 
Q 1534 -88 1275 -88 
Q 1028 -88 836 64 
Q 644 216 578 419 
Q 513 622 513 1128 
L 513 2288 
Q 513 2619 452 2700 
Q 391 2781 197 2806 
L 197 2922 
L 1388 2922 
L 1388 925 
Q 1388 613 1417 522 
Q 1447 431 1511 384 
Q 1575 338 1659 338 
Q 1772 338 1863 397 
Q 1988 478 2163 725 
L 2163 2288 
Q 2163 2619 2102 2700 
Q 2041 2781 1847 2806 
L 1847 2922 
L 3038 2922 
z
" transform="scale(0.015625)"/>
      <path id="TimesNewRomanPS-BoldMT-61" d="M 1828 431 
Q 1294 -41 869 -41 
Q 619 -41 453 123 
Q 288 288 288 534 
Q 288 869 575 1136 
Q 863 1403 1828 1847 
L 1828 2141 
Q 1828 2472 1792 2558 
Q 1756 2644 1656 2708 
Q 1556 2772 1431 2772 
Q 1228 2772 1097 2681 
Q 1016 2625 1016 2550 
Q 1016 2484 1103 2388 
Q 1222 2253 1222 2128 
Q 1222 1975 1108 1867 
Q 994 1759 809 1759 
Q 613 1759 480 1878 
Q 347 1997 347 2156 
Q 347 2381 525 2586 
Q 703 2791 1022 2900 
Q 1341 3009 1684 3009 
Q 2100 3009 2342 2832 
Q 2584 2656 2656 2450 
Q 2700 2319 2700 1847 
L 2700 713 
Q 2700 513 2715 461 
Q 2731 409 2762 384 
Q 2794 359 2834 359 
Q 2916 359 3000 475 
L 3094 400 
Q 2938 169 2770 64 
Q 2603 -41 2391 -41 
Q 2141 -41 2000 76 
Q 1859 194 1828 431 
z
M 1828 659 
L 1828 1638 
Q 1450 1416 1266 1163 
Q 1144 994 1144 822 
Q 1144 678 1247 569 
Q 1325 484 1466 484 
Q 1622 484 1828 659 
z
" transform="scale(0.015625)"/>
      <path id="TimesNewRomanPS-BoldMT-6c" d="M 1359 4238 
L 1359 606 
Q 1359 297 1431 211 
Q 1503 125 1713 113 
L 1713 0 
L 134 0 
L 134 113 
Q 328 119 422 225 
Q 484 297 484 606 
L 484 3631 
Q 484 3938 412 4023 
Q 341 4109 134 4122 
L 134 4238 
L 1359 4238 
z
" transform="scale(0.015625)"/>
      <path id="TimesNewRomanPS-BoldMT-69" d="M 919 4338 
Q 1122 4338 1262 4195 
Q 1403 4053 1403 3853 
Q 1403 3653 1261 3512 
Q 1119 3372 919 3372 
Q 719 3372 578 3512 
Q 438 3653 438 3853 
Q 438 4053 578 4195 
Q 719 4338 919 4338 
z
M 1356 2922 
L 1356 606 
Q 1356 297 1428 211 
Q 1500 125 1709 113 
L 1709 0 
L 131 0 
L 131 113 
Q 325 119 419 225 
Q 481 297 481 606 
L 481 2313 
Q 481 2622 409 2708 
Q 338 2794 131 2806 
L 131 2922 
L 1356 2922 
z
" transform="scale(0.015625)"/>
      <path id="TimesNewRomanPS-BoldMT-20" transform="scale(0.015625)"/>
      <path id="TimesNewRomanPS-BoldMT-64" d="M 3056 4238 
L 3056 875 
Q 3056 534 3075 472 
Q 3100 369 3170 319 
Q 3241 269 3416 256 
L 3416 153 
L 2181 -88 
L 2181 375 
Q 1959 106 1786 9 
Q 1613 -88 1394 -88 
Q 834 -88 509 413 
Q 247 819 247 1409 
Q 247 1881 409 2254 
Q 572 2628 855 2818 
Q 1138 3009 1463 3009 
Q 1672 3009 1834 2928 
Q 1997 2847 2181 2644 
L 2181 3525 
Q 2181 3859 2153 3928 
Q 2116 4019 2041 4062 
Q 1966 4106 1759 4106 
L 1759 4238 
L 3056 4238 
z
M 2181 2256 
Q 1950 2700 1616 2700 
Q 1500 2700 1425 2638 
Q 1309 2541 1236 2297 
Q 1163 2053 1163 1550 
Q 1163 997 1244 731 
Q 1325 466 1466 347 
Q 1538 288 1663 288 
Q 1938 288 2181 719 
L 2181 2256 
z
" transform="scale(0.015625)"/>
      <path id="TimesNewRomanPS-BoldMT-73" d="M 2063 3003 
L 2109 2006 
L 2003 2006 
Q 1813 2450 1608 2612 
Q 1403 2775 1200 2775 
Q 1072 2775 981 2689 
Q 891 2603 891 2491 
Q 891 2406 953 2328 
Q 1053 2200 1512 1889 
Q 1972 1578 2117 1361 
Q 2263 1144 2263 875 
Q 2263 631 2141 397 
Q 2019 163 1797 37 
Q 1575 -88 1306 -88 
Q 1097 -88 747 44 
Q 653 78 619 78 
Q 516 78 447 -78 
L 344 -78 
L 294 972 
L 400 972 
Q 541 559 786 353 
Q 1031 147 1250 147 
Q 1400 147 1495 239 
Q 1591 331 1591 463 
Q 1591 613 1497 722 
Q 1403 831 1078 1053 
Q 600 1384 459 1559 
Q 253 1816 253 2125 
Q 253 2463 486 2736 
Q 719 3009 1159 3009 
Q 1397 3009 1619 2894 
Q 1703 2847 1756 2847 
Q 1813 2847 1847 2870 
Q 1881 2894 1956 3003 
L 2063 3003 
z
" transform="scale(0.015625)"/>
      <path id="TimesNewRomanPS-BoldMT-70" d="M 1347 297 
L 1347 -791 
Q 1347 -1016 1383 -1097 
Q 1419 -1178 1494 -1215 
Q 1569 -1253 1788 -1253 
L 1788 -1369 
L 122 -1369 
L 122 -1253 
Q 316 -1247 409 -1144 
Q 472 -1072 472 -772 
L 472 2313 
Q 472 2622 400 2708 
Q 328 2794 122 2806 
L 122 2922 
L 1347 2922 
L 1347 2538 
Q 1500 2763 1659 2863 
Q 1888 3009 2156 3009 
Q 2478 3009 2742 2806 
Q 3006 2603 3143 2245 
Q 3281 1888 3281 1475 
Q 3281 1031 3139 664 
Q 2997 297 2726 104 
Q 2456 -88 2125 -88 
Q 1884 -88 1675 19 
Q 1519 100 1347 297 
z
M 1347 613 
Q 1616 231 1922 231 
Q 2091 231 2200 409 
Q 2363 672 2363 1409 
Q 2363 2166 2184 2444 
Q 2066 2628 1866 2628 
Q 1550 2628 1347 2172 
L 1347 613 
z
" transform="scale(0.015625)"/>
      <path id="TimesNewRomanPS-BoldMT-6f" d="M 1594 3009 
Q 1975 3009 2303 2812 
Q 2631 2616 2801 2253 
Q 2972 1891 2972 1459 
Q 2972 838 2656 419 
Q 2275 -88 1603 -88 
Q 944 -88 587 375 
Q 231 838 231 1447 
Q 231 2075 595 2542 
Q 959 3009 1594 3009 
z
M 1606 2788 
Q 1447 2788 1333 2667 
Q 1219 2547 1183 2192 
Q 1147 1838 1147 1206 
Q 1147 872 1191 581 
Q 1225 359 1337 243 
Q 1450 128 1594 128 
Q 1734 128 1828 206 
Q 1950 313 1991 503 
Q 2053 800 2053 1703 
Q 2053 2234 1993 2432 
Q 1934 2631 1819 2722 
Q 1738 2788 1606 2788 
z
" transform="scale(0.015625)"/>
      <path id="TimesNewRomanPS-BoldMT-6d" d="M 1428 2922 
L 1428 2538 
Q 1669 2800 1873 2904 
Q 2078 3009 2322 3009 
Q 2603 3009 2793 2878 
Q 2984 2747 3088 2478 
Q 3338 2759 3567 2884 
Q 3797 3009 4047 3009 
Q 4350 3009 4529 2870 
Q 4709 2731 4779 2517 
Q 4850 2303 4850 1834 
L 4850 638 
Q 4850 300 4911 219 
Q 4972 138 5166 113 
L 5166 0 
L 3656 0 
L 3656 113 
Q 3834 128 3919 250 
Q 3975 334 3975 638 
L 3975 1894 
Q 3975 2284 3944 2390 
Q 3913 2497 3845 2548 
Q 3778 2600 3688 2600 
Q 3553 2600 3415 2501 
Q 3278 2403 3138 2206 
L 3138 638 
Q 3138 322 3191 241 
Q 3263 125 3466 113 
L 3466 0 
L 1953 0 
L 1953 113 
Q 2075 119 2145 173 
Q 2216 228 2239 304 
Q 2263 381 2263 638 
L 2263 1894 
Q 2263 2291 2231 2391 
Q 2200 2491 2126 2547 
Q 2053 2603 1969 2603 
Q 1844 2603 1741 2538 
Q 1594 2441 1428 2206 
L 1428 638 
Q 1428 328 1489 229 
Q 1550 131 1744 113 
L 1744 0 
L 238 0 
L 238 113 
Q 422 131 500 231 
Q 553 300 553 638 
L 553 2288 
Q 553 2619 492 2700 
Q 431 2781 238 2806 
L 238 2922 
L 1428 2922 
z
" transform="scale(0.015625)"/>
      <path id="TimesNewRomanPS-BoldMT-67" d="M 2091 2888 
L 3075 2888 
L 3075 2544 
L 2516 2544 
Q 2669 2391 2728 2266 
Q 2803 2097 2803 1913 
Q 2803 1600 2629 1370 
Q 2456 1141 2157 1011 
Q 1859 881 1628 881 
Q 1609 881 1253 897 
Q 1113 897 1017 805 
Q 922 713 922 584 
Q 922 472 1008 400 
Q 1094 328 1288 328 
L 1828 334 
Q 2484 334 2731 191 
Q 3084 -9 3084 -425 
Q 3084 -691 2921 -908 
Q 2759 -1125 2494 -1228 
Q 2091 -1381 1566 -1381 
Q 1172 -1381 847 -1304 
Q 522 -1228 381 -1092 
Q 241 -956 241 -806 
Q 241 -663 348 -548 
Q 456 -434 750 -356 
Q 344 -156 344 200 
Q 344 416 509 619 
Q 675 822 1034 972 
Q 616 1125 428 1375 
Q 241 1625 241 1953 
Q 241 2381 591 2695 
Q 941 3009 1491 3009 
Q 1781 3009 2091 2888 
z
M 1550 2816 
Q 1369 2816 1244 2633 
Q 1119 2450 1119 1875 
Q 1119 1409 1242 1236 
Q 1366 1063 1534 1063 
Q 1722 1063 1847 1234 
Q 1972 1406 1972 1903 
Q 1972 2463 1831 2666 
Q 1731 2816 1550 2816 
z
M 1366 -431 
Q 1047 -431 944 -484 
Q 766 -581 766 -747 
Q 766 -906 950 -1036 
Q 1134 -1166 1644 -1166 
Q 2078 -1166 2326 -1050 
Q 2575 -934 2575 -725 
Q 2575 -647 2528 -594 
Q 2444 -500 2273 -465 
Q 2103 -431 1366 -431 
z
" transform="scale(0.015625)"/>
     </defs>
     <use xlink:href="#TimesNewRomanPS-BoldMT-50"/>
     <use xlink:href="#TimesNewRomanPS-BoldMT-65" x="61.083984"/>
     <use xlink:href="#TimesNewRomanPS-BoldMT-72" x="105.46875"/>
     <use xlink:href="#TimesNewRomanPS-BoldMT-63" x="148.103516"/>
     <use xlink:href="#TimesNewRomanPS-BoldMT-65" x="192.488281"/>
     <use xlink:href="#TimesNewRomanPS-BoldMT-6e" x="236.873047"/>
     <use xlink:href="#TimesNewRomanPS-BoldMT-74" x="292.488281"/>
     <use xlink:href="#TimesNewRomanPS-BoldMT-75" x="325.789062"/>
     <use xlink:href="#TimesNewRomanPS-BoldMT-61" x="381.404297"/>
     <use xlink:href="#TimesNewRomanPS-BoldMT-6c" x="431.404297"/>
     <use xlink:href="#TimesNewRomanPS-BoldMT-69" x="459.1875"/>
     <use xlink:href="#TimesNewRomanPS-BoldMT-20" x="486.970703"/>
     <use xlink:href="#TimesNewRomanPS-BoldMT-64" x="511.970703"/>
     <use xlink:href="#TimesNewRomanPS-BoldMT-69" x="567.585938"/>
     <use xlink:href="#TimesNewRomanPS-BoldMT-20" x="595.369141"/>
     <use xlink:href="#TimesNewRomanPS-BoldMT-73" x="620.369141"/>
     <use xlink:href="#TimesNewRomanPS-BoldMT-74" x="659.285156"/>
     <use xlink:href="#TimesNewRomanPS-BoldMT-75" x="692.585938"/>
     <use xlink:href="#TimesNewRomanPS-BoldMT-64" x="748.201172"/>
     <use xlink:href="#TimesNewRomanPS-BoldMT-65" x="803.816406"/>
     <use xlink:href="#TimesNewRomanPS-BoldMT-6e" x="848.201172"/>
     <use xlink:href="#TimesNewRomanPS-BoldMT-74" x="903.816406"/>
     <use xlink:href="#TimesNewRomanPS-BoldMT-69" x="937.117188"/>
     <use xlink:href="#TimesNewRomanPS-BoldMT-20" x="964.900391"/>
     <use xlink:href="#TimesNewRomanPS-BoldMT-70" x="989.900391"/>
     <use xlink:href="#TimesNewRomanPS-BoldMT-72" x="1045.515625"/>
     <use xlink:href="#TimesNewRomanPS-BoldMT-6f" x="1088.150391"/>
     <use xlink:href="#TimesNewRomanPS-BoldMT-6d" x="1138.150391"/>
     <use xlink:href="#TimesNewRomanPS-BoldMT-6f" x="1221.451172"/>
     <use xlink:href="#TimesNewRomanPS-BoldMT-73" x="1271.451172"/>
     <use xlink:href="#TimesNewRomanPS-BoldMT-73" x="1310.367188"/>
     <use xlink:href="#TimesNewRomanPS-BoldMT-69" x="1349.283203"/>
     <use xlink:href="#TimesNewRomanPS-BoldMT-20" x="1377.066406"/>
     <use xlink:href="#TimesNewRomanPS-BoldMT-70" x="1402.066406"/>
     <use xlink:href="#TimesNewRomanPS-BoldMT-65" x="1457.681641"/>
     <use xlink:href="#TimesNewRomanPS-BoldMT-72" x="1502.066406"/>
     <use xlink:href="#TimesNewRomanPS-BoldMT-20" x="1544.701172"/>
     <use xlink:href="#TimesNewRomanPS-BoldMT-6f" x="1569.701172"/>
     <use xlink:href="#TimesNewRomanPS-BoldMT-67" x="1619.701172"/>
     <use xlink:href="#TimesNewRomanPS-BoldMT-6e" x="1669.701172"/>
     <use xlink:href="#TimesNewRomanPS-BoldMT-69" x="1725.316406"/>
     <use xlink:href="#TimesNewRomanPS-BoldMT-20" x="1753.099609"/>
     <use xlink:href="#TimesNewRomanPS-BoldMT-61" x="1778.099609"/>
     <use xlink:href="#TimesNewRomanPS-BoldMT-70" x="1828.099609"/>
     <use xlink:href="#TimesNewRomanPS-BoldMT-70" x="1883.714844"/>
     <use xlink:href="#TimesNewRomanPS-BoldMT-65" x="1939.330078"/>
     <use xlink:href="#TimesNewRomanPS-BoldMT-6c" x="1983.714844"/>
     <use xlink:href="#TimesNewRomanPS-BoldMT-6c" x="2011.498047"/>
     <use xlink:href="#TimesNewRomanPS-BoldMT-6f" x="2039.28125"/>
     <use xlink:href="#TimesNewRomanPS-BoldMT-20" x="2089.28125"/>
    </g>
   </g>
   <g id="legend_1">
    <g id="patch_4">
     <path d="M 360.17 379.48 
L 417.62 379.48 
Q 419.62 379.48 419.62 377.48 
L 419.62 319.7675 
Q 419.62 317.7675 417.62 317.7675 
L 360.17 317.7675 
Q 358.17 317.7675 358.17 319.7675 
L 358.17 377.48 
Q 358.17 379.48 360.17 379.48 
z
" style="fill: #ffffff; opacity: 0.8; stroke: #cccccc; stroke-linejoin: miter"/>
    </g>
    <g id="line2d_15">
     <path d="M 362.17 325.865937 
L 372.17 325.865937 
L 382.17 325.865937 
" style="fill: none; stroke: #008000; stroke-opacity: 0.8; stroke-width: 1.5; stroke-linecap: square"/>
     <g>
      <use xlink:href="#mc5a66f59e2" x="372.17" y="325.865937" style="fill: #008000; fill-opacity: 0.8; stroke: #008000; stroke-opacity: 0.8"/>
     </g>
    </g>
    <g id="text_12">
     <!-- 2019 -->
     <g transform="translate(390.17 329.365937) scale(0.1 -0.1)">
      <defs>
       <path id="DejaVuSans-39" d="M 703 97 
L 703 672 
Q 941 559 1184 500 
Q 1428 441 1663 441 
Q 2288 441 2617 861 
Q 2947 1281 2994 2138 
Q 2813 1869 2534 1725 
Q 2256 1581 1919 1581 
Q 1219 1581 811 2004 
Q 403 2428 403 3163 
Q 403 3881 828 4315 
Q 1253 4750 1959 4750 
Q 2769 4750 3195 4129 
Q 3622 3509 3622 2328 
Q 3622 1225 3098 567 
Q 2575 -91 1691 -91 
Q 1453 -91 1209 -44 
Q 966 3 703 97 
z
M 1959 2075 
Q 2384 2075 2632 2365 
Q 2881 2656 2881 3163 
Q 2881 3666 2632 3958 
Q 2384 4250 1959 4250 
Q 1534 4250 1286 3958 
Q 1038 3666 1038 3163 
Q 1038 2656 1286 2365 
Q 1534 2075 1959 2075 
z
" transform="scale(0.015625)"/>
      </defs>
      <use xlink:href="#DejaVuSans-32"/>
      <use xlink:href="#DejaVuSans-30" x="63.623047"/>
      <use xlink:href="#DejaVuSans-31" x="127.246094"/>
      <use xlink:href="#DejaVuSans-39" x="190.869141"/>
     </g>
    </g>
    <g id="line2d_16">
     <path d="M 362.17 340.544062 
L 372.17 340.544062 
L 382.17 340.544062 
" style="fill: none; stroke: #ffa500; stroke-opacity: 0.8; stroke-width: 1.5; stroke-linecap: square"/>
     <g>
      <use xlink:href="#mb456919654" x="372.17" y="340.544062" style="fill: #ffa500; fill-opacity: 0.8; stroke: #ffa500; stroke-opacity: 0.8"/>
     </g>
    </g>
    <g id="text_13">
     <!-- 2020 -->
     <g transform="translate(390.17 344.044062) scale(0.1 -0.1)">
      <use xlink:href="#DejaVuSans-32"/>
      <use xlink:href="#DejaVuSans-30" x="63.623047"/>
      <use xlink:href="#DejaVuSans-32" x="127.246094"/>
      <use xlink:href="#DejaVuSans-30" x="190.869141"/>
     </g>
    </g>
    <g id="line2d_17">
     <path d="M 362.17 355.222188 
L 372.17 355.222188 
L 382.17 355.222188 
" style="fill: none; stroke: #00bfbf; stroke-opacity: 0.8; stroke-width: 1.5; stroke-linecap: square"/>
     <g>
      <use xlink:href="#mfe610ffeec" x="372.17" y="355.222188" style="fill: #00bfbf; fill-opacity: 0.8; stroke: #00bfbf; stroke-opacity: 0.8"/>
     </g>
    </g>
    <g id="text_14">
     <!-- 2021 -->
     <g transform="translate(390.17 358.722188) scale(0.1 -0.1)">
      <use xlink:href="#DejaVuSans-32"/>
      <use xlink:href="#DejaVuSans-30" x="63.623047"/>
      <use xlink:href="#DejaVuSans-32" x="127.246094"/>
      <use xlink:href="#DejaVuSans-31" x="190.869141"/>
     </g>
    </g>
    <g id="line2d_18">
     <path d="M 362.17 369.900312 
L 372.17 369.900312 
L 382.17 369.900312 
" style="fill: none; stroke: #ff0000; stroke-opacity: 0.8; stroke-width: 1.5; stroke-linecap: square"/>
     <g>
      <use xlink:href="#m363ecde97f" x="372.17" y="369.900312" style="fill: #ff0000; fill-opacity: 0.8; stroke: #ff0000; stroke-opacity: 0.8"/>
     </g>
    </g>
    <g id="text_15">
     <!-- 2022 -->
     <g transform="translate(390.17 373.400312) scale(0.1 -0.1)">
      <use xlink:href="#DejaVuSans-32"/>
      <use xlink:href="#DejaVuSans-30" x="63.623047"/>
      <use xlink:href="#DejaVuSans-32" x="127.246094"/>
      <use xlink:href="#DejaVuSans-32" x="190.869141"/>
     </g>
    </g>
   </g>
  </g>
 </g>
 <defs>
  <clipPath id="pec20264f40">
   <path d="M 424.62 218.16 
C 424.62 196.319058 420.317811 174.690491 411.959644 154.512092 
C 403.601477 134.333692 391.349878 115.997879 375.906 100.554 
C 360.462121 85.110122 342.126308 72.858523 321.947908 64.500356 
C 301.769509 56.142189 280.140942 51.84 258.3 51.84 
C 236.459058 51.84 214.830491 56.142189 194.652092 64.500356 
C 174.473692 72.858523 156.137879 85.110122 140.694 100.554 
C 125.250122 115.997879 112.998523 134.333692 104.640356 154.512092 
C 96.282189 174.690491 91.98 196.319058 91.98 218.16 
C 91.98 240.000942 96.282189 261.629509 104.640356 281.807908 
C 112.998523 301.986308 125.250122 320.322121 140.694 335.766 
C 156.137879 351.209878 174.473692 363.461477 194.652092 371.819644 
C 214.830491 380.177811 236.459058 384.48 258.3 384.48 
C 280.140942 384.48 301.769509 380.177811 321.947908 371.819644 
C 342.126308 363.461477 360.462121 351.209878 375.906 335.766 
C 391.349878 320.322121 403.601477 301.986308 411.959644 281.807908 
C 420.317811 261.629509 424.62 240.000942 424.62 218.16 
M 258.3 218.16 
C 258.3 218.16 258.3 218.16 258.3 218.16 
C 258.3 218.16 258.3 218.16 258.3 218.16 
C 258.3 218.16 258.3 218.16 258.3 218.16 
C 258.3 218.16 258.3 218.16 258.3 218.16 
C 258.3 218.16 258.3 218.16 258.3 218.16 
C 258.3 218.16 258.3 218.16 258.3 218.16 
C 258.3 218.16 258.3 218.16 258.3 218.16 
C 258.3 218.16 258.3 218.16 258.3 218.16 
C 258.3 218.16 258.3 218.16 258.3 218.16 
C 258.3 218.16 258.3 218.16 258.3 218.16 
C 258.3 218.16 258.3 218.16 258.3 218.16 
C 258.3 218.16 258.3 218.16 258.3 218.16 
C 258.3 218.16 258.3 218.16 258.3 218.16 
C 258.3 218.16 258.3 218.16 258.3 218.16 
C 258.3 218.16 258.3 218.16 258.3 218.16 
C 258.3 218.16 258.3 218.16 258.3 218.16 
M 424.62 218.16 
z
"/>
  </clipPath>
 </defs>
</svg>
