<?xml version="1.0" encoding="UTF-8" standalone="no"?>
<svg
   width="460.8pt"
   height="345.6pt"
   viewBox="0 0 460.8 345.6"
   version="1.1"
   id="svg941"
   sodipodi:docname="ma.svg"
   inkscape:version="1.2.2 (732a01da63, 2022-12-09)"
   xmlns:inkscape="http://www.inkscape.org/namespaces/inkscape"
   xmlns:sodipodi="http://sodipodi.sourceforge.net/DTD/sodipodi-0.dtd"
   xmlns:xlink="http://www.w3.org/1999/xlink"
   xmlns="http://www.w3.org/2000/svg"
   xmlns:svg="http://www.w3.org/2000/svg"
   xmlns:rdf="http://www.w3.org/1999/02/22-rdf-syntax-ns#"
   xmlns:cc="http://creativecommons.org/ns#"
   xmlns:dc="http://purl.org/dc/elements/1.1/">
  <sodipodi:namedview
     id="namedview943"
     pagecolor="#ffffff"
     bordercolor="#000000"
     borderopacity="0.25"
     inkscape:showpageshadow="2"
     inkscape:pageopacity="0.0"
     inkscape:pagecheckerboard="0"
     inkscape:deskcolor="#d1d1d1"
     inkscape:document-units="pt"
     showgrid="false"
     inkscape:zoom="1.703559"
     inkscape:cx="319.91848"
     inkscape:cy="259.75032"
     inkscape:window-width="1920"
     inkscape:window-height="1001"
     inkscape:window-x="-9"
     inkscape:window-y="-9"
     inkscape:window-maximized="1"
     inkscape:current-layer="svg941" />
  <metadata
     id="metadata477">
    <rdf:RDF>
      <cc:Work>
        <dc:type
           rdf:resource="http://purl.org/dc/dcmitype/StillImage" />
        <dc:date>2023-02-09T13:23:12.083887</dc:date>
        <dc:format>image/svg+xml</dc:format>
        <dc:creator>
          <cc:Agent>
            <dc:title>Matplotlib v3.6.3, https://matplotlib.org/</dc:title>
          </cc:Agent>
        </dc:creator>
      </cc:Work>
    </rdf:RDF>
  </metadata>
  <defs
     id="defs481">
    <style
       type="text/css"
       id="style479">*{stroke-linejoin: round; stroke-linecap: butt}</style>
  </defs>
  <g
     id="patch_1">
    <path
       d="M 0,345.6 H 460.8 V 0 H 0 Z"
       style="fill:#f6faf9"
       id="path483" />
  </g>
  <g
     id="patch_2"
     transform="translate(-4.8428026,-2.6415287)">
    <path
       d="M 57.6,307.584 H 414.72 V 41.472 H 57.6 Z"
       style="fill:#f6faf9"
       id="path486" />
  </g>
  <g
     id="xtick_1"
     transform="translate(-4.8428026,-2.6415287)">
    <g
       id="line2d_1">
      <path
         d="M 73.832727,307.584 V 41.472"
         clip-path="url(#pb657c318d6)"
         style="fill:none;stroke:#d3d3d3;stroke-width:0.3;stroke-linecap:square"
         id="path489" />
    </g>
    <g
       id="line2d_2">
      <defs
         id="defs493">
        <path
           id="m5f500808f2"
           d="M 0,0 V 3.5"
           style="stroke:#000000;stroke-width:0.8" />
      </defs>
      <g
         id="g497">
        <use
           xlink:href="#m5f500808f2"
           x="73.832726"
           y="307.58401"
           style="stroke:#000000;stroke-width:0.8"
           id="use495" />
      </g>
    </g>
    <g
       id="text_1">
      <!-- Gennaio -->
      <g
         transform="matrix(0.1,0,0,-0.1,53.031946,322.18244)"
         id="g522">
        <defs
           id="defs506">
          <path
             id="DejaVuSans-47"
             d="M 3809,666 V 1919 H 2778 v 519 H 4434 V 434 Q 4069,175 3628,42 3188,-91 2688,-91 1594,-91 976,548 359,1188 359,2328 q 0,1144 617,1783 618,639 1712,639 456,0 867,-113 411,-112 758,-331 v -672 q -350,297 -744,447 -394,150 -828,150 -857,0 -1287,-478 -429,-478 -429,-1425 0,-944 429,-1422 430,-478 1287,-478 334,0 596,58 263,58 472,180 z"
             transform="scale(0.015625)" />
          <path
             id="DejaVuSans-65"
             d="M 3597,1894 V 1613 H 953 q 38,-594 358,-905 320,-311 892,-311 331,0 642,81 311,81 618,244 V 178 Q 3153,47 2828,-22 2503,-91 2169,-91 1331,-91 842,396 353,884 353,1716 q 0,859 464,1363 464,505 1252,505 706,0 1117,-455 411,-454 411,-1235 z m -575,169 q -6,471 -264,752 -258,282 -683,282 -481,0 -770,-272 -289,-272 -333,-766 z"
             transform="scale(0.015625)" />
          <path
             id="DejaVuSans-6e"
             d="M 3513,2113 V 0 h -575 v 2094 q 0,497 -194,743 -194,247 -581,247 -466,0 -735,-297 -269,-296 -269,-809 V 0 H 581 v 3500 h 578 v -544 q 207,316 486,472 280,156 646,156 603,0 912,-373 310,-373 310,-1098 z"
             transform="scale(0.015625)" />
          <path
             id="DejaVuSans-61"
             d="m 2194,1759 q -697,0 -966,-159 -269,-159 -269,-544 0,-306 202,-486 202,-179 548,-179 479,0 768,339 289,339 289,901 v 128 z m 1147,238 V 0 H 2766 V 531 Q 2569,213 2275,61 1981,-91 1556,-91 q -537,0 -855,302 -317,302 -317,808 0,590 395,890 396,300 1180,300 h 807 v 57 q 0,397 -261,614 -261,217 -733,217 -300,0 -585,-72 -284,-72 -546,-216 v 532 q 315,122 612,182 297,61 578,61 760,0 1135,-394 375,-393 375,-1193 z"
             transform="scale(0.015625)" />
          <path
             id="DejaVuSans-69"
             d="m 603,3500 h 575 V 0 H 603 Z m 0,1363 h 575 V 4134 H 603 Z"
             transform="scale(0.015625)" />
          <path
             id="DejaVuSans-6f"
             d="m 1959,3097 q -462,0 -731,-361 -269,-361 -269,-989 0,-628 267,-989 268,-361 733,-361 460,0 728,362 269,363 269,988 0,622 -269,986 -268,364 -728,364 z m 0,487 q 750,0 1178,-488 429,-487 429,-1349 Q 3566,888 3137,398 2709,-91 1959,-91 1206,-91 779,398 353,888 353,1747 q 0,862 426,1349 427,488 1180,488 z"
             transform="scale(0.015625)" />
        </defs>
        <use
           xlink:href="#DejaVuSans-47"
           id="use508" />
        <use
           xlink:href="#DejaVuSans-65"
           x="77.490234"
           id="use510" />
        <use
           xlink:href="#DejaVuSans-6e"
           x="139.01367"
           id="use512" />
        <use
           xlink:href="#DejaVuSans-6e"
           x="202.39258"
           id="use514" />
        <use
           xlink:href="#DejaVuSans-61"
           x="265.77148"
           id="use516" />
        <use
           xlink:href="#DejaVuSans-69"
           x="327.05078"
           id="use518" />
        <use
           xlink:href="#DejaVuSans-6f"
           x="354.83398"
           id="use520" />
      </g>
    </g>
  </g>
  <g
     id="xtick_2"
     transform="translate(-4.8428026,-2.6415287)">
    <g
       id="line2d_3">
      <path
         d="M 138.76364,307.584 V 41.472"
         clip-path="url(#pb657c318d6)"
         style="fill:none;stroke:#d3d3d3;stroke-width:0.3;stroke-linecap:square"
         id="path526" />
    </g>
    <g
       id="line2d_4">
      <g
         id="g531">
        <use
           xlink:href="#m5f500808f2"
           x="138.76364"
           y="307.58401"
           style="stroke:#000000;stroke-width:0.8"
           id="use529" />
      </g>
    </g>
    <g
       id="text_2">
      <!-- Gennaio* -->
      <g
         transform="matrix(0.1,0,0,-0.1,115.46286,322.18244)"
         id="g553">
        <defs
           id="defs535">
          <path
             id="DejaVuSans-2a"
             d="M 3009,3897 1888,3291 3009,2681 2828,2375 1778,3009 V 1831 H 1422 V 3009 L 372,2375 191,2681 1313,3291 191,3897 372,4206 1422,3572 v 1178 h 356 V 3572 l 1050,634 z"
             transform="scale(0.015625)" />
        </defs>
        <use
           xlink:href="#DejaVuSans-47"
           id="use537" />
        <use
           xlink:href="#DejaVuSans-65"
           x="77.490234"
           id="use539" />
        <use
           xlink:href="#DejaVuSans-6e"
           x="139.01367"
           id="use541" />
        <use
           xlink:href="#DejaVuSans-6e"
           x="202.39258"
           id="use543" />
        <use
           xlink:href="#DejaVuSans-61"
           x="265.77148"
           id="use545" />
        <use
           xlink:href="#DejaVuSans-69"
           x="327.05078"
           id="use547" />
        <use
           xlink:href="#DejaVuSans-6f"
           x="354.83398"
           id="use549" />
        <use
           xlink:href="#DejaVuSans-2a"
           x="416.01562"
           id="use551" />
      </g>
    </g>
  </g>
  <g
     id="xtick_3"
     transform="translate(-4.8428026,-2.6415287)">
    <g
       id="line2d_5">
      <path
         d="M 203.69454,307.584 V 41.472"
         clip-path="url(#pb657c318d6)"
         style="fill:none;stroke:#d3d3d3;stroke-width:0.3;stroke-linecap:square"
         id="path557" />
    </g>
    <g
       id="line2d_6">
      <g
         id="g562">
        <use
           xlink:href="#m5f500808f2"
           x="203.69455"
           y="307.58401"
           style="stroke:#000000;stroke-width:0.8"
           id="use560" />
      </g>
    </g>
    <g
       id="text_3">
      <!-- Febbraio -->
      <g
         transform="matrix(0.1,0,0,-0.1,182.10079,322.18244)"
         id="g586">
        <defs
           id="defs568">
          <path
             id="DejaVuSans-46"
             d="M 628,4666 H 3309 V 4134 H 1259 V 2759 H 3109 V 2228 H 1259 V 0 H 628 Z"
             transform="scale(0.015625)" />
          <path
             id="DejaVuSans-62"
             d="m 3116,1747 q 0,634 -261,995 -261,361 -717,361 -457,0 -718,-361 -261,-361 -261,-995 0,-634 261,-995 261,-361 718,-361 456,0 717,361 261,361 261,995 z M 1159,2969 q 182,312 458,463 277,152 661,152 638,0 1036,-506 399,-506 399,-1331 Q 3713,922 3314,415 2916,-91 2278,-91 1894,-91 1617,61 1341,213 1159,525 V 0 H 581 v 4863 h 578 z"
             transform="scale(0.015625)" />
          <path
             id="DejaVuSans-72"
             d="m 2631,2963 q -97,56 -211,82 -114,27 -251,27 -488,0 -749,-317 -261,-317 -261,-911 V 0 H 581 v 3500 h 578 v -544 q 182,319 472,473 291,155 707,155 59,0 131,-8 72,-7 159,-23 z"
             transform="scale(0.015625)" />
        </defs>
        <use
           xlink:href="#DejaVuSans-46"
           id="use570" />
        <use
           xlink:href="#DejaVuSans-65"
           x="52.019531"
           id="use572" />
        <use
           xlink:href="#DejaVuSans-62"
           x="113.54297"
           id="use574" />
        <use
           xlink:href="#DejaVuSans-62"
           x="177.01953"
           id="use576" />
        <use
           xlink:href="#DejaVuSans-72"
           x="240.49609"
           id="use578" />
        <use
           xlink:href="#DejaVuSans-61"
           x="281.60938"
           id="use580" />
        <use
           xlink:href="#DejaVuSans-69"
           x="342.88867"
           id="use582" />
        <use
           xlink:href="#DejaVuSans-6f"
           x="370.67188"
           id="use584" />
      </g>
    </g>
  </g>
  <g
     id="xtick_4"
     transform="translate(-4.8428026,-2.6415287)">
    <g
       id="line2d_7">
      <path
         d="M 268.62545,307.584 V 41.472"
         clip-path="url(#pb657c318d6)"
         style="fill:none;stroke:#d3d3d3;stroke-width:0.3;stroke-linecap:square"
         id="path590" />
    </g>
    <g
       id="line2d_8">
      <g
         id="g595">
        <use
           xlink:href="#m5f500808f2"
           x="268.62546"
           y="307.58401"
           style="stroke:#000000;stroke-width:0.8"
           id="use593" />
      </g>
    </g>
    <g
       id="text_4">
      <!-- Giugno -->
      <g
         transform="matrix(0.1,0,0,-0.1,250.79108,322.18244)"
         id="g614">
        <defs
           id="defs600">
          <path
             id="DejaVuSans-75"
             d="m 544,1381 v 2119 h 575 V 1403 q 0,-497 193,-746 194,-248 582,-248 465,0 735,297 271,297 271,810 v 1984 h 575 V 0 H 2900 V 538 Q 2691,219 2414,64 2138,-91 1772,-91 1169,-91 856,284 544,659 544,1381 Z m 1447,2203 z"
             transform="scale(0.015625)" />
          <path
             id="DejaVuSans-67"
             d="m 2906,1791 q 0,625 -258,968 -257,344 -723,344 -462,0 -720,-344 -258,-343 -258,-968 0,-622 258,-966 258,-344 720,-344 466,0 723,344 258,344 258,966 z M 3481,434 q 0,-893 -397,-1329 -396,-436 -1215,-436 -303,0 -572,45 -269,45 -522,139 v 559 q 253,-137 500,-202 247,-66 503,-66 566,0 847,295 281,295 281,892 V 616 Q 2728,306 2450,153 2172,0 1784,0 1141,0 747,490 353,981 353,1791 q 0,812 394,1302 394,491 1037,491 388,0 666,-153 278,-153 456,-462 v 531 h 575 z"
             transform="scale(0.015625)" />
        </defs>
        <use
           xlink:href="#DejaVuSans-47"
           id="use602" />
        <use
           xlink:href="#DejaVuSans-69"
           x="77.490234"
           id="use604" />
        <use
           xlink:href="#DejaVuSans-75"
           x="105.27344"
           id="use606" />
        <use
           xlink:href="#DejaVuSans-67"
           x="168.65234"
           id="use608" />
        <use
           xlink:href="#DejaVuSans-6e"
           x="232.12891"
           id="use610" />
        <use
           xlink:href="#DejaVuSans-6f"
           x="295.50781"
           id="use612" />
      </g>
    </g>
  </g>
  <g
     id="xtick_5"
     transform="translate(-4.8428026,-2.6415287)">
    <g
       id="line2d_9">
      <path
         d="M 333.55636,307.584 V 41.472"
         clip-path="url(#pb657c318d6)"
         style="fill:none;stroke:#d3d3d3;stroke-width:0.3;stroke-linecap:square"
         id="path618" />
    </g>
    <g
       id="line2d_10">
      <g
         id="g623">
        <use
           xlink:href="#m5f500808f2"
           x="333.55637"
           y="307.58401"
           style="stroke:#000000;stroke-width:0.8"
           id="use621" />
      </g>
    </g>
    <g
       id="text_5">
      <!-- Luglio -->
      <g
         transform="matrix(0.1,0,0,-0.1,318.67746,322.18244)"
         id="g642">
        <defs
           id="defs628">
          <path
             id="DejaVuSans-4c"
             d="m 628,4666 h 631 V 531 H 3531 V 0 H 628 Z"
             transform="scale(0.015625)" />
          <path
             id="DejaVuSans-6c"
             d="m 603,4863 h 575 V 0 H 603 Z"
             transform="scale(0.015625)" />
        </defs>
        <use
           xlink:href="#DejaVuSans-4c"
           id="use630" />
        <use
           xlink:href="#DejaVuSans-75"
           x="53.962891"
           id="use632" />
        <use
           xlink:href="#DejaVuSans-67"
           x="117.3418"
           id="use634" />
        <use
           xlink:href="#DejaVuSans-6c"
           x="180.81836"
           id="use636" />
        <use
           xlink:href="#DejaVuSans-69"
           x="208.60156"
           id="use638" />
        <use
           xlink:href="#DejaVuSans-6f"
           x="236.38477"
           id="use640" />
      </g>
    </g>
  </g>
  <g
     id="xtick_6"
     transform="translate(-4.8428026,-2.6415287)">
    <g
       id="line2d_11">
      <path
         d="M 398.48727,307.584 V 41.472"
         clip-path="url(#pb657c318d6)"
         style="fill:none;stroke:#d3d3d3;stroke-width:0.3;stroke-linecap:square"
         id="path646" />
    </g>
    <g
       id="line2d_12">
      <g
         id="g651">
        <use
           xlink:href="#m5f500808f2"
           x="398.48727"
           y="307.58401"
           style="stroke:#000000;stroke-width:0.8"
           id="use649" />
      </g>
    </g>
    <g
       id="text_6">
      <!-- Settembre -->
      <g
         transform="matrix(0.1,0,0,-0.1,372.17555,322.18244)"
         id="g677">
        <defs
           id="defs657">
          <path
             id="DejaVuSans-53"
             d="m 3425,4513 v -616 q -359,172 -678,256 -319,85 -616,85 -515,0 -795,-200 -280,-200 -280,-569 0,-310 186,-468 186,-157 705,-254 l 381,-78 q 706,-135 1042,-474 336,-339 336,-907 0,-679 -455,-1029 -454,-350 -1332,-350 -331,0 -705,75 -373,75 -773,222 v 650 q 384,-215 753,-325 369,-109 725,-109 540,0 834,212 294,213 294,607 0,343 -211,537 -211,194 -692,291 l -385,75 q -706,140 -1022,440 -315,300 -315,835 0,619 436,975 436,356 1201,356 329,0 669,-60 341,-59 697,-177 z"
             transform="scale(0.015625)" />
          <path
             id="DejaVuSans-74"
             d="M 1172,4494 V 3500 H 2356 V 3053 H 1172 V 1153 q 0,-428 117,-550 117,-122 477,-122 h 590 V 0 H 1766 Q 1100,0 847,248 594,497 594,1153 V 3053 H 172 v 447 h 422 v 994 z"
             transform="scale(0.015625)" />
          <path
             id="DejaVuSans-6d"
             d="m 3328,2828 q 216,388 516,572 300,184 706,184 547,0 844,-383 297,-382 297,-1088 V 0 h -578 v 2094 q 0,503 -179,746 -178,244 -543,244 -447,0 -707,-297 -259,-296 -259,-809 V 0 h -578 v 2094 q 0,506 -178,748 -178,242 -550,242 -441,0 -701,-298 -259,-298 -259,-808 V 0 H 581 v 3500 h 578 v -544 q 197,322 472,475 275,153 653,153 382,0 649,-194 267,-193 395,-562 z"
             transform="scale(0.015625)" />
        </defs>
        <use
           xlink:href="#DejaVuSans-53"
           id="use659" />
        <use
           xlink:href="#DejaVuSans-65"
           x="63.476562"
           id="use661" />
        <use
           xlink:href="#DejaVuSans-74"
           x="125"
           id="use663" />
        <use
           xlink:href="#DejaVuSans-74"
           x="164.20898"
           id="use665" />
        <use
           xlink:href="#DejaVuSans-65"
           x="203.41797"
           id="use667" />
        <use
           xlink:href="#DejaVuSans-6d"
           x="264.94141"
           id="use669" />
        <use
           xlink:href="#DejaVuSans-62"
           x="362.35352"
           id="use671" />
        <use
           xlink:href="#DejaVuSans-72"
           x="425.83008"
           id="use673" />
        <use
           xlink:href="#DejaVuSans-65"
           x="464.69336"
           id="use675" />
      </g>
    </g>
  </g>
  <g
     id="matplotlib.axis_2"
     transform="translate(-4.8428026,-2.6415287)">
    <g
       id="ytick_1">
      <g
         id="line2d_13">
        <path
           d="M 57.6,283.392 H 414.72"
           clip-path="url(#pb657c318d6)"
           style="fill:none;stroke:#d3d3d3;stroke-width:0.3;stroke-linecap:square"
           id="path682" />
      </g>
      <g
         id="line2d_14">
        <defs
           id="defs686">
          <path
             id="m568fd6f10b"
             d="M 0,0 H -3.5"
             style="stroke:#000000;stroke-width:0.8" />
        </defs>
        <g
           id="g690">
          <use
             xlink:href="#m568fd6f10b"
             x="57.599998"
             y="283.392"
             style="stroke:#000000;stroke-width:0.8"
             id="use688" />
        </g>
      </g>
      <g
         id="text_7">
        <!-- 0 -->
        <g
           transform="matrix(0.1,0,0,-0.1,44.2375,287.19122)"
           id="g698">
          <defs
             id="defs694">
            <path
               id="DejaVuSans-30"
               d="m 2034,4250 q -487,0 -733,-480 -245,-479 -245,-1442 0,-959 245,-1439 246,-480 733,-480 491,0 736,480 246,480 246,1439 0,963 -246,1442 -245,480 -736,480 z m 0,500 q 785,0 1199,-621 414,-620 414,-1801 0,-1178 -414,-1799 -414,-620 -1199,-620 -784,0 -1198,620 -414,621 -414,1799 0,1181 414,1801 414,621 1198,621 z"
               transform="scale(0.015625)" />
          </defs>
          <use
             xlink:href="#DejaVuSans-30"
             id="use696" />
        </g>
      </g>
    </g>
    <g
       id="ytick_2">
      <g
         id="line2d_15">
        <path
           d="M 57.6,235.008 H 414.72"
           clip-path="url(#pb657c318d6)"
           style="fill:none;stroke:#d3d3d3;stroke-width:0.3;stroke-linecap:square"
           id="path702" />
      </g>
      <g
         id="line2d_16">
        <g
           id="g707">
          <use
             xlink:href="#m568fd6f10b"
             x="57.599998"
             y="235.008"
             style="stroke:#000000;stroke-width:0.8"
             id="use705" />
        </g>
      </g>
      <g
         id="text_8">
        <!-- 20 -->
        <g
           transform="matrix(0.1,0,0,-0.1,37.875,238.80722)"
           id="g717">
          <defs
             id="defs711">
            <path
               id="DejaVuSans-32"
               d="M 1228,531 H 3431 V 0 H 469 v 531 q 359,372 979,998 621,627 780,809 303,340 423,576 121,236 121,464 0,372 -261,606 -261,235 -680,235 -297,0 -627,-103 -329,-103 -704,-313 v 638 q 381,153 712,231 332,78 607,78 725,0 1156,-363 431,-362 431,-968 0,-288 -108,-546 -107,-257 -392,-607 -78,-91 -497,-524 Q 1991,1309 1228,531 Z"
               transform="scale(0.015625)" />
          </defs>
          <use
             xlink:href="#DejaVuSans-32"
             id="use713" />
          <use
             xlink:href="#DejaVuSans-30"
             x="63.623047"
             id="use715" />
        </g>
      </g>
    </g>
    <g
       id="ytick_3">
      <g
         id="line2d_17">
        <path
           d="M 57.6,186.624 H 414.72"
           clip-path="url(#pb657c318d6)"
           style="fill:none;stroke:#d3d3d3;stroke-width:0.3;stroke-linecap:square"
           id="path721" />
      </g>
      <g
         id="line2d_18">
        <g
           id="g726">
          <use
             xlink:href="#m568fd6f10b"
             x="57.599998"
             y="186.62399"
             style="stroke:#000000;stroke-width:0.8"
             id="use724" />
        </g>
      </g>
      <g
         id="text_9">
        <!-- 40 -->
        <g
           transform="matrix(0.1,0,0,-0.1,37.875,190.42322)"
           id="g736">
          <defs
             id="defs730">
            <path
               id="DejaVuSans-34"
               d="M 2419,4116 825,1625 h 1594 z m -166,550 h 794 V 1625 h 666 V 1100 H 3047 V 0 H 2419 V 1100 H 313 v 609 z"
               transform="scale(0.015625)" />
          </defs>
          <use
             xlink:href="#DejaVuSans-34"
             id="use732" />
          <use
             xlink:href="#DejaVuSans-30"
             x="63.623047"
             id="use734" />
        </g>
      </g>
    </g>
    <g
       id="ytick_4">
      <g
         id="line2d_19">
        <path
           d="M 57.6,138.24 H 414.72"
           clip-path="url(#pb657c318d6)"
           style="fill:none;stroke:#d3d3d3;stroke-width:0.3;stroke-linecap:square"
           id="path740" />
      </g>
      <g
         id="line2d_20">
        <g
           id="g745">
          <use
             xlink:href="#m568fd6f10b"
             x="57.599998"
             y="138.24001"
             style="stroke:#000000;stroke-width:0.8"
             id="use743" />
        </g>
      </g>
      <g
         id="text_10">
        <!-- 60 -->
        <g
           transform="matrix(0.1,0,0,-0.1,37.875,142.03922)"
           id="g755">
          <defs
             id="defs749">
            <path
               id="DejaVuSans-36"
               d="m 2113,2584 q -425,0 -674,-291 -248,-290 -248,-796 0,-503 248,-796 249,-292 674,-292 425,0 673,292 248,293 248,796 0,506 -248,796 -248,291 -673,291 z m 1253,1979 v -575 q -238,112 -480,171 -242,60 -480,60 -625,0 -955,-422 -329,-422 -376,-1275 184,272 462,417 279,145 613,145 703,0 1111,-427 408,-426 408,-1160 0,-719 -425,-1154 -425,-434 -1131,-434 -810,0 -1238,620 -428,621 -428,1799 0,1106 525,1764 525,658 1409,658 238,0 480,-47 242,-47 505,-140 z"
               transform="scale(0.015625)" />
          </defs>
          <use
             xlink:href="#DejaVuSans-36"
             id="use751" />
          <use
             xlink:href="#DejaVuSans-30"
             x="63.623047"
             id="use753" />
        </g>
      </g>
    </g>
    <g
       id="ytick_5">
      <g
         id="line2d_21">
        <path
           d="M 57.6,89.856 H 414.72"
           clip-path="url(#pb657c318d6)"
           style="fill:none;stroke:#d3d3d3;stroke-width:0.3;stroke-linecap:square"
           id="path759" />
      </g>
      <g
         id="line2d_22">
        <g
           id="g764">
          <use
             xlink:href="#m568fd6f10b"
             x="57.599998"
             y="89.856003"
             style="stroke:#000000;stroke-width:0.8"
             id="use762" />
        </g>
      </g>
      <g
         id="text_11">
        <!-- 80 -->
        <g
           transform="matrix(0.1,0,0,-0.1,37.875,93.655219)"
           id="g774">
          <defs
             id="defs768">
            <path
               id="DejaVuSans-38"
               d="m 2034,2216 q -450,0 -708,-241 -257,-241 -257,-662 0,-422 257,-663 258,-241 708,-241 450,0 709,242 260,243 260,662 0,421 -258,662 -257,241 -711,241 z m -631,268 q -406,100 -633,378 -226,279 -226,679 0,559 398,884 399,325 1092,325 697,0 1094,-325 397,-325 397,-884 0,-400 -227,-679 -226,-278 -629,-378 456,-106 710,-416 255,-309 255,-755 Q 3634,634 3220,271 2806,-91 2034,-91 1263,-91 848,271 434,634 434,1313 q 0,446 256,755 257,310 713,416 z m -231,997 q 0,-362 226,-565 227,-203 636,-203 407,0 636,203 230,203 230,565 0,363 -230,566 -229,203 -636,203 -409,0 -636,-203 -226,-203 -226,-566 z"
               transform="scale(0.015625)" />
          </defs>
          <use
             xlink:href="#DejaVuSans-38"
             id="use770" />
          <use
             xlink:href="#DejaVuSans-30"
             x="63.623047"
             id="use772" />
        </g>
      </g>
    </g>
    <g
       id="ytick_6">
      <g
         id="line2d_23">
        <path
           d="M 57.6,41.472 H 414.72"
           clip-path="url(#pb657c318d6)"
           style="fill:none;stroke:#d3d3d3;stroke-width:0.3;stroke-linecap:square"
           id="path778" />
      </g>
      <g
         id="line2d_24">
        <g
           id="g783">
          <use
             xlink:href="#m568fd6f10b"
             x="57.599998"
             y="41.472"
             style="stroke:#000000;stroke-width:0.8"
             id="use781" />
        </g>
      </g>
      <g
         id="text_12">
        <!-- 100 -->
        <g
           transform="matrix(0.1,0,0,-0.1,31.5125,45.271219)"
           id="g795">
          <defs
             id="defs787">
            <path
               id="DejaVuSans-31"
               d="M 794,531 H 1825 V 4091 L 703,3866 v 575 l 1116,225 h 631 V 531 H 3481 V 0 H 794 Z"
               transform="scale(0.015625)" />
          </defs>
          <use
             xlink:href="#DejaVuSans-31"
             id="use789" />
          <use
             xlink:href="#DejaVuSans-30"
             x="63.623047"
             id="use791" />
          <use
             xlink:href="#DejaVuSans-30"
             x="127.24609"
             id="use793" />
        </g>
      </g>
    </g>
  </g>
  <g
     id="line2d_25"
     transform="translate(-4.8428026,-2.6415287)">
    <path
       d="M 73.832727,242.2656 138.76364,138.24 l 64.9309,62.8992 64.93091,62.8992 64.93091,12.096 64.93091,-7.2576"
       clip-path="url(#pb657c318d6)"
       style="fill:none;stroke:#e87000;stroke-width:1.5;stroke-dasharray:5.55, 2.4;stroke-dashoffset:0"
       id="path800" />
    <defs
       id="defs803">
      <path
         id="m7ee547c020"
         d="M 0,3 C 0.795609,3 1.55874,2.683901 2.12132,2.12132 2.683901,1.55874 3,0.795609 3,0 3,-0.795609 2.683901,-1.55874 2.12132,-2.12132 1.55874,-2.683901 0.795609,-3 0,-3 -0.795609,-3 -1.55874,-2.683901 -2.12132,-2.12132 -2.683901,-1.55874 -3,-0.795609 -3,0 -3,0.795609 -2.683901,1.55874 -2.12132,2.12132 -1.55874,2.683901 -0.795609,3 0,3 Z"
         style="stroke:#e87000" />
    </defs>
    <g
       clip-path="url(#pb657c318d6)"
       id="g817">
      <use
         xlink:href="#m7ee547c020"
         x="73.832726"
         y="242.26559"
         style="fill:#e87000;stroke:#e87000"
         id="use805" />
      <use
         xlink:href="#m7ee547c020"
         x="138.76364"
         y="138.24001"
         style="fill:#e87000;stroke:#e87000"
         id="use807" />
      <use
         xlink:href="#m7ee547c020"
         x="203.69455"
         y="201.13921"
         style="fill:#e87000;stroke:#e87000"
         id="use809" />
      <use
         xlink:href="#m7ee547c020"
         x="268.62546"
         y="264.03839"
         style="fill:#e87000;stroke:#e87000"
         id="use811" />
      <use
         xlink:href="#m7ee547c020"
         x="333.55637"
         y="276.1344"
         style="fill:#e87000;stroke:#e87000"
         id="use813" />
      <use
         xlink:href="#m7ee547c020"
         x="398.48727"
         y="268.8768"
         style="fill:#e87000;stroke:#e87000"
         id="use815" />
    </g>
  </g>
  <g
     id="line2d_26"
     transform="translate(-4.8428026,-2.6415287)">
    <path
       d="m 73.832727,264.0384 64.930913,-65.3184 64.9309,19.3536 64.93091,29.0304 64.93091,19.3536 64.93091,-12.096"
       clip-path="url(#pb657c318d6)"
       style="fill:none;stroke:#05898f;stroke-width:1.5;stroke-linecap:square"
       id="path820" />
    <defs
       id="defs823">
      <path
         id="m9654870128"
         d="M -3,3 H 3 V -3 H -3 Z"
         style="stroke:#05898f;stroke-linejoin:miter" />
    </defs>
    <g
       clip-path="url(#pb657c318d6)"
       id="g837">
      <use
         xlink:href="#m9654870128"
         x="73.832726"
         y="264.03839"
         style="fill:#05898f;stroke:#05898f;stroke-linejoin:miter"
         id="use825" />
      <use
         xlink:href="#m9654870128"
         x="138.76364"
         y="198.72"
         style="fill:#05898f;stroke:#05898f;stroke-linejoin:miter"
         id="use827" />
      <use
         xlink:href="#m9654870128"
         x="203.69455"
         y="218.07359"
         style="fill:#05898f;stroke:#05898f;stroke-linejoin:miter"
         id="use829" />
      <use
         xlink:href="#m9654870128"
         x="268.62546"
         y="247.104"
         style="fill:#05898f;stroke:#05898f;stroke-linejoin:miter"
         id="use831" />
      <use
         xlink:href="#m9654870128"
         x="333.55637"
         y="266.45761"
         style="fill:#05898f;stroke:#05898f;stroke-linejoin:miter"
         id="use833" />
      <use
         xlink:href="#m9654870128"
         x="398.48727"
         y="254.3616"
         style="fill:#05898f;stroke:#05898f;stroke-linejoin:miter"
         id="use835" />
    </g>
  </g>
  <g
     id="patch_3"
     transform="translate(-4.8428026,-2.6415287)">
    <path
       d="M 57.6,307.584 V 41.472"
       style="fill:none;stroke:#000000;stroke-width:0.8;stroke-linecap:square;stroke-linejoin:miter"
       id="path840" />
  </g>
  <g
     id="patch_4"
     transform="translate(-4.8428026,-2.6415287)">
    <path
       d="M 414.72,307.584 V 41.472"
       style="fill:none;stroke:#000000;stroke-width:0.8;stroke-linecap:square;stroke-linejoin:miter"
       id="path843" />
  </g>
  <g
     id="patch_5"
     transform="translate(-4.8428026,-2.6415287)">
    <path
       d="M 57.6,307.584 H 414.72"
       style="fill:none;stroke:#000000;stroke-width:0.8;stroke-linecap:square;stroke-linejoin:miter"
       id="path846" />
  </g>
  <g
     id="patch_6"
     transform="translate(-4.8428026,-2.6415287)">
    <path
       d="M 57.6,41.472 H 414.72"
       style="fill:none;stroke:#000000;stroke-width:0.8;stroke-linecap:square;stroke-linejoin:miter"
       id="path849" />
  </g>
  <g
     id="legend_1"
     transform="translate(-3.5220382,-2.2012739)">
    <g
       id="patch_7">
      <path
         d="M 309.53406,78.82825 H 407.72 q 2,0 2,-2 V 48.472 q 0,-2 -2,-2 h -98.18594 q -2,0 -2,2 v 28.35625 q 0,2 2,2 z"
         style="opacity:0.8;fill:#ffffff;stroke:#cccccc;stroke-linejoin:miter"
         id="path852" />
    </g>
    <g
       id="line2d_27">
      <path
         d="m 311.53406,54.570437 h 10 10"
         style="fill:none;stroke:#e87000;stroke-width:1.5;stroke-dasharray:5.55, 2.4;stroke-dashoffset:0"
         id="path855" />
      <g
         id="g859">
        <use
           xlink:href="#m7ee547c020"
           x="321.53406"
           y="54.570438"
           style="fill:#e87000;stroke:#e87000"
           id="use857" />
      </g>
    </g>
    <g
       id="text_13">
      <!-- Esami Ceselli -->
      <g
         transform="matrix(0.1,0,0,-0.1,339.53406,58.070437)"
         id="g894">
        <defs
           id="defs866">
          <path
             id="DejaVuSans-45"
             d="M 628,4666 H 3578 V 4134 H 1259 V 2753 H 3481 V 2222 H 1259 V 531 H 3634 V 0 H 628 Z"
             transform="scale(0.015625)" />
          <path
             id="DejaVuSans-73"
             d="m 2834,3397 v -544 q -243,125 -506,187 -262,63 -544,63 -428,0 -642,-131 -214,-131 -214,-394 0,-200 153,-314 153,-114 616,-217 l 197,-44 q 612,-131 870,-370 258,-239 258,-667 0,-488 -386,-773 Q 2250,-91 1575,-91 1294,-91 989,-36 684,19 347,128 v 594 q 319,-166 628,-249 309,-82 613,-82 406,0 624,139 219,139 219,392 0,234 -158,359 -157,125 -692,241 l -200,47 q -534,112 -772,345 -237,233 -237,639 0,494 350,762 350,269 994,269 318,0 599,-47 282,-46 519,-140 z"
             transform="scale(0.015625)" />
          <path
             id="DejaVuSans-20"
             transform="scale(0.015625)"
             d="" />
          <path
             id="DejaVuSans-43"
             d="m 4122,4306 v -665 q -319,297 -680,443 -361,147 -767,147 -800,0 -1225,-489 -425,-489 -425,-1414 0,-922 425,-1411 425,-489 1225,-489 406,0 767,147 361,147 680,444 V 359 Q 3791,134 3420,21 3050,-91 2638,-91 1578,-91 968,557 359,1206 359,2328 q 0,1125 609,1773 610,649 1670,649 418,0 788,-111 371,-111 696,-333 z"
             transform="scale(0.015625)" />
        </defs>
        <use
           xlink:href="#DejaVuSans-45"
           id="use868" />
        <use
           xlink:href="#DejaVuSans-73"
           x="63.183594"
           id="use870" />
        <use
           xlink:href="#DejaVuSans-61"
           x="115.2832"
           id="use872" />
        <use
           xlink:href="#DejaVuSans-6d"
           x="176.5625"
           id="use874" />
        <use
           xlink:href="#DejaVuSans-69"
           x="273.97461"
           id="use876" />
        <use
           xlink:href="#DejaVuSans-20"
           x="301.75781"
           id="use878" />
        <use
           xlink:href="#DejaVuSans-43"
           x="333.54492"
           id="use880" />
        <use
           xlink:href="#DejaVuSans-65"
           x="403.36914"
           id="use882" />
        <use
           xlink:href="#DejaVuSans-73"
           x="464.89258"
           id="use884" />
        <use
           xlink:href="#DejaVuSans-65"
           x="516.99219"
           id="use886" />
        <use
           xlink:href="#DejaVuSans-6c"
           x="578.51562"
           id="use888" />
        <use
           xlink:href="#DejaVuSans-6c"
           x="606.29883"
           id="use890" />
        <use
           xlink:href="#DejaVuSans-69"
           x="634.08203"
           id="use892" />
      </g>
    </g>
    <g
       id="line2d_28">
      <path
         d="m 311.53406,69.248562 h 10 10"
         style="fill:none;stroke:#05898f;stroke-width:1.5;stroke-linecap:square"
         id="path897" />
      <g
         id="g901">
        <use
           xlink:href="#m9654870128"
           x="321.53406"
           y="69.248566"
           style="fill:#05898f;stroke:#05898f;stroke-linejoin:miter"
           id="use899" />
      </g>
    </g>
    <g
       id="text_14">
      <!-- Esami Boldi -->
      <g
         transform="matrix(0.1,0,0,-0.1,339.53406,72.748562)"
         id="g930">
        <defs
           id="defs906">
          <path
             id="DejaVuSans-42"
             d="M 1259,2228 V 519 h 1013 q 509,0 754,211 246,211 246,645 0,438 -246,645 -245,208 -754,208 z m 0,1919 V 2741 h 935 q 462,0 688,173 227,174 227,530 0,353 -227,528 -226,175 -688,175 z m -631,519 h 1613 q 722,0 1112,-300 391,-300 391,-853 0,-429 -200,-682 -200,-253 -588,-315 466,-100 724,-418 258,-317 258,-792 0,-625 -425,-966 Q 3088,0 2303,0 H 628 Z"
             transform="scale(0.015625)" />
          <path
             id="DejaVuSans-64"
             d="m 2906,2969 v 1894 h 575 V 0 H 2906 V 525 Q 2725,213 2448,61 2172,-91 1784,-91 1150,-91 751,415 353,922 353,1747 q 0,825 398,1331 399,506 1033,506 388,0 664,-152 277,-151 458,-463 z M 947,1747 q 0,-634 261,-995 261,-361 717,-361 456,0 718,361 263,361 263,995 0,634 -263,995 -262,361 -718,361 -456,0 -717,-361 -261,-361 -261,-995 z"
             transform="scale(0.015625)" />
        </defs>
        <use
           xlink:href="#DejaVuSans-45"
           id="use908" />
        <use
           xlink:href="#DejaVuSans-73"
           x="63.183594"
           id="use910" />
        <use
           xlink:href="#DejaVuSans-61"
           x="115.2832"
           id="use912" />
        <use
           xlink:href="#DejaVuSans-6d"
           x="176.5625"
           id="use914" />
        <use
           xlink:href="#DejaVuSans-69"
           x="273.97461"
           id="use916" />
        <use
           xlink:href="#DejaVuSans-20"
           x="301.75781"
           id="use918" />
        <use
           xlink:href="#DejaVuSans-42"
           x="333.54492"
           id="use920" />
        <use
           xlink:href="#DejaVuSans-6f"
           x="402.14844"
           id="use922" />
        <use
           xlink:href="#DejaVuSans-6c"
           x="463.33008"
           id="use924" />
        <use
           xlink:href="#DejaVuSans-64"
           x="491.11328"
           id="use926" />
        <use
           xlink:href="#DejaVuSans-69"
           x="554.58984"
           id="use928" />
      </g>
    </g>
  </g>
  <defs
     id="defs939">
    <clipPath
       id="pb657c318d6">
      <rect
         x="57.6"
         y="41.472"
         width="357.12"
         height="266.112"
         id="rect936" />
    </clipPath>
  </defs>
</svg>
